<?xml version="1.0" encoding="UTF-8"?>
<svg id="_Слой_2" data-name="Слой 2" xmlns="http://www.w3.org/2000/svg" viewBox="0 0 41.18 45.01">
  <defs>
    <style>
      .cls-1 {
        fill: #fff;
      }
    </style>
  </defs>
  <g id="_Слой_1-2" data-name="Слой 1">
    <g>
      <path class="cls-1" d="m0,22.59C0,19.89,0,17.18,0,14.47c0-.71.09-1.41.26-2.09.27-1.06.89-1.86,1.8-2.46,1.04-.69,2.13-1.29,3.22-1.89,2.47-1.38,4.92-2.81,7.41-4.17,1.88-1.03,3.73-2.11,5.6-3.14.62-.34,1.27-.6,1.98-.7.48-.07.91.04,1.35.19,1.4.47,2.68,1.2,3.93,1.97,1.72,1.07,3.5,2.05,5.28,3.02,2.7,1.48,5.39,2.99,8.02,4.59,1.1.67,1.87,1.57,2.13,2.85.13.62.2,1.25.2,1.88,0,5.46,0,10.93,0,16.39,0,.62-.09,1.24-.27,1.84-.29,1.01-.9,1.76-1.76,2.35-1.24.86-2.54,1.58-3.88,2.27-3.19,1.65-6.3,3.44-9.41,5.24-1.1.64-2.16,1.34-3.3,1.93-1.37.7-2.66.57-3.97-.11-.92-.48-1.8-1.04-2.7-1.56-1.69-.99-3.45-1.86-5.16-2.8-2.04-1.13-4.01-2.4-6.07-3.49-.96-.51-1.94-1-2.83-1.64-1.07-.78-1.59-1.88-1.77-3.17C0,31.38,0,30.99,0,30.59c0-2.67,0-5.33,0-8Zm8.83.09c0,.3-.02.67,0,1.04.02.3.07.61.14.91.73,3.1,2.22,5.68,4.92,7.51,1.76,1.2,3.62,1.99,5.77,2.13,2.64.17,5.05-.46,7.31-1.78,1.08-.63,1.9-1.58,2.9-2.3.09-.07.05-.13.04-.21-.09-.46-.44-.7-.79-.93-1.07-.72-2.21-1.31-3.32-1.96-.13-.08-.21-.04-.32.06-.49.47-1.01.9-1.58,1.25-1.19.74-2.48,1.13-3.88.98-1.68-.18-3.15-.85-4.34-2.1-1.49-1.55-2.18-3.39-1.91-5.49.32-2.5,1.72-4.31,3.95-5.44,1.14-.58,2.4-.8,3.69-.61,1.33.2,2.57.68,3.54,1.61.62.6,1.15.51,1.76.12.07-.04.14-.08.21-.12.95-.58,1.94-1.09,2.88-1.69.19-.12.23-.18.1-.38-.76-1.12-1.8-1.94-2.89-2.7-1.32-.92-2.82-1.35-4.39-1.58-2.26-.34-4.45-.16-6.57.72-2.85,1.18-4.82,3.28-6.17,5.98-.77,1.54-1.15,3.2-1.06,5.01Zm27.44-4.03c0-.31,0-.56,0-.82,0-.16-.05-.21-.21-.21-.5,0-1,.01-1.5,0-.2,0-.26.05-.26.25.01.43.01.86,0,1.29-.01.35-.11.42-.46.43-.38,0-.76-.02-1.13,0-.3.02-.37-.12-.36-.37,0-.45,0-.9,0-1.35,0-.17-.03-.24-.23-.25-.5-.03-1,.02-1.5,0-.19,0-.24.05-.24.24.01.42,0,.84,0,1.26,0,.39-.09.47-.47.47-.41,0-.82,0-1.23,0-.19,0-.27.03-.27.24.02.49.01.98,0,1.47,0,.2.06.26.26.25.47,0,.94,0,1.41,0,.17,0,.3.03.3.25,0,.46,0,.92,0,1.38,0,.22-.1.33-.34.32-.47-.01-.94,0-1.41,0-.16,0-.21.05-.21.21,0,.51,0,1.02,0,1.53,0,.17.04.23.22.23.48-.01.96,0,1.44,0,.23,0,.32.04.31.3-.02.47,0,.94,0,1.41,0,.18.03.27.24.27.5-.02,1-.01,1.5,0,.18,0,.23-.05.22-.22-.01-.47,0-.94,0-1.41,0-.23.09-.34.33-.33.47,0,.94.01,1.41,0,.21,0,.23.08.23.25,0,.5,0,1,0,1.5,0,.15.03.22.2.22.52-.01,1.04,0,1.56,0,.17,0,.21-.06.2-.21,0-.41,0-.82,0-1.23,0-.43.1-.52.52-.53.39,0,.78-.01,1.16,0,.2,0,.29-.03.28-.26-.02-.49-.01-.98,0-1.47,0-.19-.05-.24-.24-.24-.49.01-.98,0-1.47,0-.21,0-.26-.07-.26-.26.01-.49.01-.98,0-1.47,0-.19.05-.24.24-.24.5.01,1,0,1.5,0,.13,0,.23,0,.24-.18.04-.53.07-1.06,0-1.59-.02-.16-.08-.2-.23-.19-.26,0-.51,0-.77,0-.31,0-.74.11-.92-.05-.21-.18-.04-.61-.07-.88Z"/>
      <path class="cls-1" d="m33.33,23.51c-.14,0-.29,0-.43,0-.45,0-.45,0-.51-.43-.06-.45-.03-.89-.02-1.34,0-.14.07-.19.21-.19.49,0,.98,0,1.46.07.13.02.21.07.22.21.04.44.08.87.06,1.31-.01.25-.13.39-.41.38-.19-.01-.39,0-.58,0Z"/>
    </g>
  </g>
</svg>