<?xml version="1.0" encoding="UTF-8"?>
<svg id="_Слой_2" data-name="Слой 2" xmlns="http://www.w3.org/2000/svg" viewBox="0 0 41.21 45.01">
  <defs>
    <style>
      .cls-1 {
        fill: #fff;
      }
    </style>
  </defs>
  <g id="_Слой_1-2" data-name="Слой 1">
    <path class="cls-1" d="m41.18,22.59c0,2.78,0,5.55,0,8.33,0,1.9-.69,3.37-2.33,4.42-2.92,1.88-6.1,3.28-9.08,5.06-2.24,1.34-4.52,2.6-6.76,3.94-1.56.92-3.06.88-4.62,0-5.25-2.97-10.52-5.91-15.78-8.85C.83,34.49,0,32.98,0,30.97,0,25.42.02,19.86,0,14.31c0-2.13.76-3.77,2.69-4.85C7.96,6.53,13.21,3.55,18.46.59c1.26-.71,2.55-.8,3.86-.16.77.38,1.56.71,2.29,1.16,4.33,2.69,8.86,5.03,13.3,7.53,2.33,1.32,3.41,3.09,3.29,5.76-.11,2.57-.02,5.14-.02,7.71Zm-20.7,11.7c3.59,0,6.53-1.47,9.05-3.94.43-.42.39-.77-.11-1.08-.83-.51-1.72-.95-2.5-1.53-.87-.65-1.48-.53-2.32.15-2.72,2.21-6.25,1.97-8.77-.46-2.5-2.4-2.82-6.1-.79-8.9,2.04-2.8,5.87-3.91,8.64-1.98,1.92,1.34,3.24,1.02,4.81-.17.16-.12.34-.23.53-.31.91-.41.96-.88.25-1.61-1.98-2.04-4.32-3.2-7.17-3.57-6.6-.84-12.82,4.13-13.27,10.74-.46,6.69,5,12.61,11.64,12.64Zm11.86-11.78c.13-.68-.07-1.11-.87-.97-.84.14-1.23-.18-1.07-1.05.14-.78-.23-.97-.96-.93-.63.03-1.15.03-1.01.89.14.83-.19,1.24-1.06,1.09-.82-.14-.92.29-.91.98,0,.68.09,1.13.91.99.83-.14,1.22.16,1.07,1.04-.1.63.07,1.01.82.93.59-.06,1.28.16,1.15-.86-.1-.74.24-1.2,1.04-1.1.81.1,1.01-.29.89-1Zm6.87.02c.12-.7-.08-1.13-.89-.99-.85.14-1.22-.2-1.07-1.06.14-.8-.26-.96-.97-.94-.66.02-1.14.09-.99.93.15.85-.2,1.23-1.06,1.08-.83-.14-.91.31-.92.99,0,.7.13,1.12.94.97.88-.16,1.19.24,1.05,1.08-.11.68.16.94.87.9.65-.03,1.25.04,1.1-.93-.12-.78.24-1.17,1.04-1.05.8.12,1.02-.27.91-.98Z"/>
  </g>
</svg>