<?xml version="1.0" encoding="UTF-8"?>
<svg id="_Слой_2" data-name="Слой 2" xmlns="http://www.w3.org/2000/svg" viewBox="0 0 33.21 33.21">
  <defs>
    <style>
      .cls-1 {
        fill: #fff;
      }
    </style>
  </defs>
  <g id="_Слой_1-2" data-name="Слой 1">
    <path class="cls-1" d="m16.61,0L0,10.55v12.1l16.61,10.55,16.61-10.55v-12.11L16.61,0Zm0,19.91l-4.69-3.25,4.69-3.2,4.69,3.2-4.69,3.25Zm1.58-9.16v-6.05l10.62,6.75-4.76,3.3-5.86-3.99Zm-3.16,0l-5.86,3.99-4.76-3.3,10.62-6.75v6.05Zm-8.62,5.88l-3.24,2.21v-4.45l3.24,2.25Zm2.75,1.91l5.87,4.07v5.89l-10.6-6.74,4.73-3.22Zm9.04,4.07l5.87-4.07,4.73,3.22-10.6,6.74v-5.89Zm8.62-5.98l3.24-2.25v4.45l-3.24-2.21Z"/>
  </g>
</svg>