<?xml version="1.0" encoding="UTF-8"?>
<svg id="_Слой_2" data-name="Слой 2" xmlns="http://www.w3.org/2000/svg" viewBox="0 0 33.15 37">
  <defs>
    <style>
      .cls-1 {
        fill: #fff;
      }
    </style>
  </defs>
  <g id="_Слой_1-2" data-name="Слой 1">
    <path class="cls-1" d="m16.66.05c5.02,0,10.05,0,15.07,0,1.54,0,1.49,0,1.35,1.52-.29,3.13-.5,6.27-.77,9.4-.61,7.08-1.26,14.15-1.85,21.23-.07.88-.41,1.24-1.26,1.47-3.62.97-7.22,2.02-10.82,3.07-1.13.33-2.22.38-3.36.04-3.67-1.08-7.36-2.14-11.04-3.18-.71-.2-1.04-.54-1.11-1.35C2.12,23.78,1.32,15.33.56,6.88.37,4.81.39,2.72.02.66-.14-.29.6.06.98.06c4.94-.02,9.88-.02,14.83-.02.29,0,.57,0,.86,0Zm-.02,7.84c-2,0-4,0-6,0-3.01,0-2.96,0-2.88,2.95.03.85.33.99,1.07.98,3.18-.03,6.37-.01,9.55-.01,3.08,0,3.06,0,2.73,3.04-.08.69-.33.9-.99.89-1.92-.03-3.84,0-5.75,0q-2.35,0-2.2,2.4c0,.12.03.25.01.37-.18,1.05.38,1.21,1.26,1.18,1.43-.06,2.86-.02,4.28-.02q3.2,0,2.87,3.26c-.04.43.03.89-.47,1.17-2.28,1.28-4.56,1.3-6.87.11-.41-.21-.65-.55-.56-.99.34-1.61-.61-1.71-1.79-1.6-.4.04-.82.05-1.22,0-.99-.12-1.2.33-1.04,1.22.12.64.11,1.3.12,1.95.05,2.27.13,2.07,2.25,3.05,3.84,1.77,7.52,1.81,11.36,0,1.94-.91,2-.72,2.12-2.83.3-5.29.6-10.59.99-15.88.08-1.11-.28-1.28-1.25-1.26-2.53.06-5.06.02-7.59.02Z"/>
  </g>
</svg>