<?xml version="1.0" encoding="UTF-8"?>
<svg id="_Слой_2" data-name="Слой 2" xmlns="http://www.w3.org/2000/svg" viewBox="0 0 49.02 17.01">
  <defs>
    <style>
      .cls-1 {
        fill: #fff;
      }
    </style>
  </defs>
  <g id="_Слой_1-2" data-name="Слой 1">
    <g>
      <path class="cls-1" d="m0,7.65c.57-.92.8-2.05,1.81-2.68.89-.56,1.86-.91,2.89-.79,1.04.12,1.3-.31,1.2-1.23-.05-.48.06-.99-.02-1.46C5.68.29,6.12-.08,7.31.02c.78.06,1.06.27,1.06,1.06,0,3.46.06,6.92.11,10.38,0,.55-.14.94-.76,1.07-1.58.32-3.14.35-4.71-.05-1.66-.42-2.36-1.74-3.01-3.11v-1.72Zm5.88.91c0-.45-.04-.9,0-1.34.1-.85-.19-1.15-1.08-1.05-1.55.18-2.4,1.32-2.07,2.94.2,1.01,1.43,1.88,2.61,1.64,1-.2.35-1.13.53-1.71.04-.15,0-.32,0-.49Z"/>
      <path class="cls-1" d="m33.99,17.01c-.65-.05-1.29-.05-1.93-.26-.91-.3-1.06-1.02-.9-1.76.2-.91.86-.34,1.37-.3.81.05,1.63.11,2.44.04.92-.08,1.27-.79,1.45-1.59.09-.38-.13-.53-.48-.52-.16,0-.32.04-.48.06-2.16.21-3.65-.55-4.18-2.15-.79-2.39-.09-4.57,1.89-5.63,2.13-1.14,4.41-.99,6.68-.53.86.17.49.85.2,1.1-1.18,1.03-.86,2.36-.9,3.63-.04,1.1-.06,2.2-.13,3.3-.22,3.26-1.76,4.66-5.03,4.61Zm2.5-8.52c-.04-.52-.08-1.13-.14-1.74-.04-.36-.22-.66-.63-.54-.69.21-1.47.34-1.78,1.13-.33.86-.45,1.77.09,2.58.46.68,1.27.78,1.99.61.71-.16.4-.86.46-1.35.03-.2,0-.41,0-.7Z"/>
      <path class="cls-1" d="m40.19,8.38c0-2.65,1.89-4.44,4.63-4.4,2.51.04,4.21,1.78,4.19,4.28-.02,2.58-1.96,4.55-4.46,4.53-2.58-.03-4.37-1.83-4.37-4.41Zm2.84-.06c.12.78-.09,1.69.85,2.13.56.26,1.11.22,1.62-.13,1.03-.68,1-3.24-.05-3.89-.48-.3-.99-.37-1.51-.11-.83.42-.85,1.22-.92,2Z"/>
      <path class="cls-1" d="m22.22,8.54c0-.94.05-1.88-.02-2.82-.06-.75.18-1.12.94-1.27,1.49-.3,2.98-.49,4.49-.25,1.26.2,2.08.83,2.32,2.15.34,1.83.22,3.67.11,5.5-.08,1.3-1.32.76-2.07.88-.79.13-.52-.57-.52-.94-.04-1.43-.05-2.86,0-4.29.03-1.23-.87-1.22-1.66-1.29-.85-.08-.98.51-.97,1.2.02,1.35.02,2.69.02,4.04,0,.68,0,1.39-1.01,1.25-.75-.11-1.73.12-1.61-1.23.09-.97.02-1.96.02-2.94h-.03Z"/>
      <path class="cls-1" d="m20.59,9.1c0,.27.02.4,0,.52-.2.95.58,2.5-.45,2.76-1.74.44-3.73.94-5.45-.19-1.41-.93-1.11-3.28.43-4.09.8-.42,1.69-.57,2.56-.76.26-.06.64-.11.66-.44.03-.4-.37-.5-.66-.61-.73-.26-1.44.01-2.16.1-.44.05-1.09.32-1.26-.33-.12-.5.07-1.13.61-1.36,1.45-.63,2.97-.85,4.5-.27.61.23.9.76,1.05,1.4.27,1.13.13,2.27.18,3.26Zm-3.5,1.84c1.02.06,1.45-.25,1.4-1.04-.03-.5-.21-.9-.82-.78-.68.13-1.47.26-1.5,1.13-.02.72.69.65.91.68Z"/>
      <path class="cls-1" d="m12.74,8.36c-.05,1.43.11,3.02-.21,4.61-.19.9-.52,1.71-1.16,2.38-.91.95-2.03,1.08-3.09.37-.5-.34-.2-.65.08-.87,1.42-1.08,1.72-2.59,1.71-4.25-.02-1.84.07-3.68-.02-5.51-.06-1.26.7-1.1,1.49-1.13.78-.03,1.34,0,1.23,1.06-.1,1.05-.02,2.12-.02,3.34Z"/>
      <path class="cls-1" d="m11.56.08c1.2-.33,1.18.38,1.21,1.26.05,1.1-.27,1.46-1.42,1.44-1.08-.02-1.25-.47-1.3-1.39-.06-1.19.42-1.55,1.5-1.31Z"/>
    </g>
  </g>
</svg>