<?xml version="1.0" encoding="UTF-8"?>
<svg id="_Слой_2" data-name="Слой 2" xmlns="http://www.w3.org/2000/svg" viewBox="0 0 37.72 14.82">
  <defs>
    <style>
      .cls-1 {
        fill: #fff;
      }
    </style>
  </defs>
  <g id="_Слой_1-2" data-name="Слой 1">
    <path class="cls-1" d="m2.06,0c-.33.03-.61.29-.21.73.79.44-.78.77-.32,1.07.15.31-.01.66-.44.72-.62.05-.56.9.04.46.68-.22.12.09-.2.15-.72.21-1.21.93-.79,1.58.4.9.5,1.91.81,2.84.51,1.44,1.26,2.81,2.23,4,.46.67,1.13,1.15,1.77,1.65.62.4,1.32.81,2.03,1.01,1.26.46,2.61.5,3.94.61.81,0,1.62-.06,2.41-.2.72.08,1.23-.53,1.88-.21.39-.35.96-.2,1.36-.45.29-.99-1-.2-1.4-.68-.44.52-.81-.06-1.35.11-.91.05.07-.41.05-.83-.48-.37-1.03.51-1.34.75-.77-.14-1.52-.36-2.23-.69-.8-.42-1.59-.91-2.17-1.62-.61-.72-1.28-1.44-1.55-2.37-.59-1.52-.55-3.17-.7-4.77.06-1.08,1.2.12,1.69-.27-.17-.56-1.07-.74-1.57-.96-.48-.03-.66-.46-1.17-.5.02-.6-.94-.27-1.29-.7.35-.89-1.14.02-1.03-.75C2.76.18,2.39-.03,2.06,0Zm0,.08c.08-.02.17,0,.26.07.43.58-.79-.07-.37.48-.26-.12-.13-.49.11-.55Zm31.07.29c-.05,0-.19.07-.42.22-.28.18-.57.32-.87.42-.19.07-.29.16-.29.27,0,.08.07.14.2.19.29.09.47.22.56.39.07.13.1.36.1.7v5.34c0,.47-.11.73-.34.79-.25.06-.37.16-.37.29,0,.05,0,.1.01.12.02.08.15.11.4.09.97-.08,1.66-.1,2.07-.06.13.01.21,0,.24-.02s.05-.08.05-.17c0-.12-.1-.19-.29-.21-.31-.03-.51-.08-.59-.13-.12-.08-.19-.25-.2-.51,0-.26-.01-.46-.01-.6,0-.2.1-.35.29-.45.17-.12.29-.18.36-.18.06,0,.1.03.14.1.45.76.99,1.48,1.64,2.18.1.1.26.13.49.08.46-.04.83-.06,1.12-.06.19,0,.29-.08.29-.23,0-.11-.02-.18-.07-.21-.05-.03-.16-.04-.35-.04-.25,0-.52-.12-.81-.37-.45-.39-.93-.98-1.44-1.75-.14-.22-.21-.35-.21-.41,0-.04.02-.07.05-.09.44-.44.85-.75,1.24-.92.28-.13.57-.2.89-.21.2-.01.3-.09.3-.23,0-.15-.06-.22-.19-.23-.39,0-.78,0-1.17,0-.56,0-.99-.03-1.28-.07-.13-.02-.2.04-.21.18,0,.14.06.22.2.24.33.05.49.12.49.23,0,.06-.05.14-.15.25-.49.43-.91.77-1.25,1.04-.13.11-.22.16-.28.16-.06,0-.09-.05-.09-.16v-3.83c-.01-.5,0-.9,0-1.2,0-.43,0-.63,0-.61,0-.21-.08-.32-.25-.32Zm-13.95.04c-.06,0-.22.07-.46.22-.3.19-.59.33-.86.42-.18.06-.27.15-.27.28,0,.08.06.14.19.19.24.09.41.21.5.36.1.15.15.4.15.73v5.53c0,.33-.11.54-.33.6s-.33.15-.33.25c0,.11.02.18.06.2.04.02.14.03.31.01.83-.07,1.53-.08,2.09-.02.18.02.27-.05.27-.21,0-.12-.09-.19-.27-.21-.3-.04-.51-.11-.63-.22s-.18-.29-.18-.54l-.02-5.46c0-.39,0-.79.01-1.19.02-.42.02-.63.02-.61,0-.21-.07-.31-.23-.31Zm-8.13.64s-.08.05-.1.13c-.04.13.02.23.18.3.26.12.44.25.53.4.1.14.14.35.14.62v5.23c0,.66-.2,1.01-.6,1.05-.17.02-.26.08-.26.18,0,.17.09.24.26.21.63-.09,1.42-.09,2.39-.01.33.03.51-.02.54-.16.02-.15-.06-.24-.26-.26-.39-.05-.65-.1-.76-.17-.15-.07-.23-.21-.23-.42v-2.75c0-.05.04-.08.11-.08.65,0,1.12.02,1.4.05.29.03.48.31.59.82.03.13.1.19.21.18.14,0,.21-.06.2-.17-.04-.89,0-1.61.11-2.16.02-.1-.04-.16-.18-.19-.16-.04-.26.03-.29.19-.05.3-.09.48-.14.55s-.14.11-.27.13c-.69.05-1.21.07-1.58.07-.12,0-.18-.04-.18-.13V1.9c0-.09.02-.16.06-.18.07-.05.21-.07.42-.07.93,0,1.5.02,1.73.05.22.03.39.11.52.25.11.12.23.33.35.62.04.11.12.17.24.17s.17-.06.17-.19c.02-.64.06-1.1.13-1.37,0-.02,0-.03,0-.05,0-.06-.14-.08-.41-.07-.82.05-1.79.07-2.92.07-.95,0-1.56-.02-1.82-.06-.18-.03-.28-.04-.32-.02Zm-8.06.15c.11.02.15.09-.15.13h-.12c-.02-.13.16-.15.27-.13Zm-.12.42c.22.09.66.14.73.38-.44-.23.09.28-.28.27-.2,0-.57-.43-.45-.65Zm-.11.36c.5.38-.28,0-.6.24-.5.05.55-.28.6-.24Zm1.33.23c.06.02.06.08-.04.21.39.46.09.31-.18-.02.23.16.05.85-.3.38-.25-.47-.41-.15-.15.17-.26-.5-1.03-.28-1.58-.09-.36-.04.93-.31,1.07-.37.22,0,.98-.32,1.18-.27Zm1.56.53c.16,0,.32,0,.47.02.25.29-.19.78-.64.81-.55.21-1.12.26-1.63.33-.66-.08-1.13.51-1.82.59.18-.34-.15-.12-.5-.13.18.68-1.22-.18-.4-.34-.62-.22-.63.43-.56.8h-.04c-.57-.73.06-1.03.78-1.12-.14.34.2.44.51.51.52-.14-.34-.23.05-.37.21-.04-.68-.21.06-.32.77-.13,1.46-.43,2.22-.59.51-.1,1.01-.17,1.49-.18Zm-.17.17c-.07-.02-.23.02-.31.23.06.13.09-.04.08-.08.28-.04.3-.13.23-.15Zm-1.6.28c-.22-.01-.58.04-.71.19.16.07.34-.21.58-.03.44-.08.36-.15.14-.16Zm3.16.04c.11-.02.45.11.33.32-.08.02-.07-.1-.13-.12-.25-.13-.27-.19-.2-.2Zm-4.29.3c-.06,0-.1.03-.11.1l.11.1c.44.04.17-.2,0-.2Zm-.25.2c-.08-.01-.16.03-.2.19.08-.02.2.03.27.08.47.32.17-.23-.07-.27Zm3.01.08c.41-.08.29.98.16,1.31.25-.17.2.79.12,1.15.14-.18.19.3.04.63.01-.06.33-.1.1.3-.18-.39-.26.8-.14.26.31-.5.23-.03.33.2.06.46.27.89.33,1.3.29.29-.12.09-.12.49.09-.11.48.16.48.57.03-.65.07-.15.39.02.26.43.46.83.86,1.18.31.36-.02.11.11.32.33.58,1.09.92,1.74,1.07.29.37.72.75,1.31.58-.49.31,1.39.39.76.56-.33.18-.65-.12-.97-.1-.45-.15-1.16-.63-1.65-.31-.67.42.34-.47-.2-.07-.55.66-.37-.41-.91-.09-.03-.1-.48-.13-.14-.31-.3-.02-.11-.04,0-.28-.13-.03-.85,0-1.13-.24-.33-.43.06-.26.41-.19-.56.1.19.42.57.24-.17-.07-.36-.43-.8-.75-.62-.37-1.13-.55-1.77-.85-.7-.41.16-.15.4.07.69.31.42-.43.02-.62-.44.02-.55-.49-.91-.46.56.09.95-.14.32-.71-.59-.69.25.52-.1.36-.16-.21-.04-.5-.54-.61,0,.19-.07.49-.18.08-.14.02-.3.18-.41-.24.11-.47-.46-.58-.55-.88.49.32.72.07.37-.28-.24-.42-.27-.09-.41-.03-.48.49-.04-.85-.26-.46-.22,0-.09.24-.09.54-.71-.18.17.37.38.67-.32-.34-.27.25-.54-.03-.09-.25-.1-.64-.55-.71.51-.18-.3-.54-.24-.56.29-.27.33-.63.68-.06-.45-.04-.01.74.1.51-.02-.4.18-.81-.49-.99-.2.27-.54-.52-.14-.36-.05-.53.62-.22.57-.44.34-.15-.42-.64,0-.83.31.19,1.13-.3.58-.37.34,0,.62.15.65-.2.28.06,1.03.3.35-.08.22-.11.68-.2.95-.2.08-.06.15-.1.21-.11Zm23.44.44c-.53,0-.94.12-1.26.35-.34.25-.51.59-.51,1.03,0,.36.11.64.32.86.2.2.6.43,1.19.7.41.18.69.34.83.47.13.12.2.26.2.44,0,.4-.29.6-.86.6-.68,0-1.17-.27-1.48-.8-.07-.12-.15-.17-.25-.16-.1,0-.15.12-.15.34,0,.5.02.78.05.84.05.06.24.13.57.2.38.08.77.12,1.15.12.57,0,1.03-.13,1.36-.38s.5-.6.5-1.03c0-.39-.12-.7-.36-.94-.19-.18-.54-.38-1.06-.61-.5-.22-.81-.38-.95-.48-.15-.12-.23-.28-.23-.48,0-.36.28-.54.84-.54.49,0,.9.26,1.22.79.05.07.13.1.27.07.13-.03.18-.08.17-.13-.1-.43-.17-.76-.2-.99-.01-.08-.17-.14-.46-.2-.27-.05-.58-.08-.91-.08Zm-5.09.02c-.48,0-.98.14-1.5.41-.5.26-.75.49-.75.68,0,.31.17.45.5.42.29-.02.52-.19.67-.51s.32-.47.5-.47c.62,0,.91.34.88,1v.39c-.01.17-.16.28-.43.34-1.61.31-2.42.81-2.42,1.52,0,.37.12.66.37.88.22.2.5.29.84.29.35,0,.71-.08,1.06-.25.35-.17.54-.25.58-.25.05,0,.13.08.26.23.12.15.26.23.42.23.19,0,.44-.09.75-.26.31-.17.47-.3.47-.39,0-.16-.06-.24-.18-.24-.02,0-.09.01-.22.03s-.21.03-.26.03c-.23,0-.34-.13-.34-.4l.02-2.52c0-.79-.4-1.18-1.23-1.18Zm-18.39.19c-.1.03-.27.58-.15.78.25.39.49-.97.29-.51-.11.58-.22.34-.06-.09,0-.14-.04-.19-.07-.18Zm-3.47.51s.11,0,.21.01c.55-.02.37.3.06.33,0,.02-.29-.07-.17-.14.75.1-.38-.18-.11-.19Zm1.38.19c.05.1.12.3.06.38.15.15.68.42.26.05.27-.05-.04-.14-.2-.27-.19-.28-.17-.27-.13-.17Zm-1.79.01c.12,0,.25.06.01.21-.26-.13-.14-.2-.01-.21Zm3.51.36s-.01,0,0,.05c.09.21.03-.02,0-.05Zm-1.87.21c.07.11.27.06.36.16.83.34-.07-.22-.36-.16Zm-.13.06s-.03.06.06.19c.06.13.19.14.31.17.89.41-.19-.4-.37-.36Zm-1.53.07c.14.02.3.09.12.17l-.07-.03c-.29-.13-.18-.16-.05-.14Zm1.26.11s0,.06.18.23l.12.13c.62.17-.18-.36-.3-.36Zm-.08.17s.25.3.12.3c-.46-.33-.27-.1-.01.16.28.42.51-.25.06-.33-.11-.09-.15-.13-.17-.13Zm1.94.44s0,.08,0,.22c.08.07.01-.28,0-.22Zm.4.04c-.1,0-.17.7.07.85.1.29.21.17.24-.16-.24,0,.1-.51-.22-.41-.03-.2-.06-.28-.1-.28Zm.68.02s-.06.05-.08.33v.08c.09-.21.09-.38.08-.42Zm-4.62.02c.06-.02.42.71.37.91-.22-.08-.21-.42-.31-.6-.07-.22-.08-.3-.06-.31Zm2.6.04c-.06.16.12.69.23.87.28.43.15-.23.46.19-.17-.37.08-.17.04-.33-.08-.16-.83-1.02-.49-.37.31.77-.19-.1-.25-.36Zm-2.75.13c.08.05.31.42.35.62.35.42.21.66.58,1.18-.47-.3-.56-1-.86-1.46-.12-.29-.12-.37-.07-.34Zm23,.1s.07.01.1.03c.05.03.07.1.07.2v1c-.01.13-.14.23-.39.32-.22.08-.43.12-.63.12-.51,0-.76-.23-.76-.7s.49-.79,1.47-.96c.05-.01.1-.01.14-.01Zm-20.41,1.23c.19.06.07.68.36.76.63.83-.44.02-.8-.06.05,0-.32-.1-.16-.14-.11-.12-.37-.55.21-.26.47.23.5.08.28-.29.04-.02.07-.02.1-.01Zm-2.14.12c.02-.08.34.44.4.66.18.56.73.89.79,1.26.61.35.3.93.82,1.09.23-.12.25.7.74.53-.27.13.11.28.25.51.31-.04.98.68.31.43-.28-.06-.48-.35-.68-.55-.59-.38-.98-1.01-1.31-1.61-.42-.63-.93-1.27-1.21-2.01-.08-.19-.11-.29-.11-.31Zm4.72.48s-.03.11.06.32l.05.09c.07-.24-.06-.43-.11-.4Zm-2.14.73c.17.04.44.13.54.15.03.13-.6.11-.05.35-.32,0-.42-.03.04.25-.18.14.36.26.18.47.55.43-.1.11-.34-.07-.14-.1-.71-.29-.62-.41.67.35.17-.02-.13-.25.54.13-.43-.4.08-.26.15.04-.23-.31.27-.06-.25-.2-.16-.22.01-.18Zm3.35,1.35c-.07-.02,0,.24.15.4.33.39.08-.22-.04-.27-.06-.09-.09-.13-.12-.14Zm-2.89.38c.18,0,.48.08.66.18.81.18-.17.4-.49.15l-.14-.03c-.28-.22-.22-.3-.03-.3Zm.96.08c.07-.01.37.11.5.23.39.05.39.23-.04.12-.08-.05-.2-.04-.24-.14-.22-.14-.27-.2-.23-.21Zm.51,0c.12,0,.32.03.38.13.85.14-.05.2-.3-.03-.25-.06-.2-.1-.08-.1Zm0,.48c.09-.02.69.23.26.17l-.13-.04c-.14-.09-.16-.12-.13-.13Zm2.85.14s.05.03.07.08c-.22,0-.15-.11-.07-.08Zm-2.85.23c.17.02.84.38.25.21l-.09-.04-.1-.05c-.12-.1-.11-.14-.06-.13Zm1.44.96c.08-.01.74.05.18.04-.17-.03-.21-.04-.18-.04Zm-1.75.1s.12.03.23.07c.71.44,1.52.67,2.28,1.01.66.09,1.36.26,2.02.12.55.27,1.11-.07,1.66.18-1.21.24-2.45-.02-3.66-.19-.76-.1-1.44-.41-2.13-.71-.1-.05-.2-.11-.29-.16-.48-.26-.42-.32.05-.06.16.13,1.32.61.77.29-.21-.05-1.26-.62-.93-.55Zm4.4.21c.05.03.06.15.05.29-.36.4-.15-.16-.37.05-.21.17-.16-.1-.05-.16.2-.17.31-.22.36-.18Zm3.03.13c.32.03.7.1.91.11-.13.27-.94.02-1.29.09h-.15s-.09-.02-.09-.02c.02-.19.3-.21.63-.18Zm2.79.09c.84,0,.06.12-.33.12-.44-.1.2-.1.33-.12Zm-5.06.11c.07,0,.09.05-.1.17l-.07.02c0-.12.1-.18.17-.19Zm-.32.05s-.02.07-.12.19c-.31.02.08-.24.12-.19Zm-3.03.09c.08-.02.89.22,1,.19.83.31-.5.1-.77-.07-.19-.08-.25-.12-.23-.12Zm4.02.04s-.04.07-.16.16l-.1.07c-.14-.1.26-.29.27-.22Z"/>
  </g>
</svg>