<?xml version="1.0" encoding="UTF-8"?>
<svg id="_Слой_2" data-name="Слой 2" xmlns="http://www.w3.org/2000/svg" viewBox="0 0 36.37 35.45">
  <defs>
    <style>
      .cls-1 {
        fill: #fff;
      }
    </style>
  </defs>
  <g id="_Слой_1-2" data-name="Слой 1">
    <path class="cls-1" d="m12.49,35.45c.56-.24.96-.8.96-1.45v-4.27c0-.16.01-.32.03-.48-.01,0-.02,0-.03,0h-2.85c-1.19,0-2.21-.47-2.69-1.42-.55-1.03-.79-2.77-2.21-3.72-.24-.16-.08-.4.4-.4.47.08,1.5.71,2.13,1.58.71.87,1.42,1.58,2.69,1.58,1.97,0,3.02-.1,3.65-.44.74-1.1,1.76-1.93,2.83-1.93v-.02c-4.48-.14-7.35-1.63-8.68-3.93-2.9.03-5.42.32-6.86.56-.05-.26-.09-.52-.12-.78,1.42-.23,3.83-.51,6.6-.56-.09-.22-.17-.44-.23-.67-2.78-.14-5.17-.03-6.47.08-.02-.26-.04-.52-.04-.79,1.3-.11,3.63-.21,6.34-.09-.06-.4-.1-.8-.1-1.22,0-1.34.47-2.77,1.34-3.95-.4-1.34-.95-4.19.16-5.22,2.13,0,3.64,1.03,4.35,1.66,1.34-.55,2.85-.87,4.51-.87s3.16.32,4.43.87c.71-.63,2.21-1.66,4.35-1.66,1.19,1.11.55,3.95.16,5.22.87,1.19,1.34,2.53,1.27,3.95,0,.38-.04.75-.09,1.11,2.77-.14,5.16-.03,6.49.08,0,.27-.03.53-.04.79-1.32-.11-3.78-.22-6.61-.07-.07.27-.16.52-.26.77,2.8.04,5.27.31,6.76.54-.03.26-.07.52-.12.78-1.51-.24-4.09-.53-7.02-.54-1.32,2.28-4.13,3.76-8.52,3.93v.02c2.06,0,3.95,3.08,3.95,5.22v4.27c0,.65.39,1.21.96,1.45,7.24-2.4,12.49-9.23,12.49-17.27C36.37,8.16,28.22,0,18.19,0S0,8.16,0,18.19c0,8.04,5.24,14.87,12.49,17.27Z"/>
  </g>
</svg>