<?xml version="1.0" encoding="UTF-8"?>
<svg id="_Слой_2" data-name="Слой 2" xmlns="http://www.w3.org/2000/svg" viewBox="0 0 36.37 33.21">
  <defs>
    <style>
      .cls-1 {
        fill: #fff;
      }
    </style>
  </defs>
  <g id="_Слой_1-2" data-name="Слой 1">
    <path class="cls-1" d="m28.48,0c-.35,0-.65.22-.76.55l-3.93,12.1h-11.19L8.66.55C8.56.23,8.26,0,7.93,0c-.34,0-.64.2-.76.51L2.43,13.16s0,0,0,0L.05,19.49c-.12.33-.01.71.28.92l17.39,12.65h0s0,0,0,0c0,0,.02.01.03.02.01,0,.02.02.03.02,0,0,0,0,0,0,0,0,0,0,0,0,0,0,0,0,.01,0,0,0,0,0,.01,0,.02,0,.03.02.05.02h0s.04.02.05.02t0,0s.02,0,.04.01c0,0,.01,0,.02,0t0,0s.03,0,.05.01c.02,0,.04,0,.06,0,.03,0,.06,0,.1,0,.03,0,.06,0,.09,0,.01,0,.02,0,.03,0h0s0,0,.02,0c0,0,0,0,.01,0,0,0,.02,0,.02,0,.01,0,.02,0,.03,0,0,0,0,0,.01,0h0s.03-.01.04-.02c.02,0,.03-.01.04-.02t0,0s0,0,0,0h.02s.03-.03.05-.04c0,0,0,0,.01,0,0,0,0,0,0,0,.01,0,.02-.02.04-.02h0s17.39-12.65,17.39-12.65c.29-.21.4-.58.27-.92l-2.37-6.3s0-.02,0-.02L29.21.51C29.09.21,28.8,0,28.48,0ZM4.8,14.23h6.65l4.63,14.25L4.8,14.23Zm20.13,0h6.65l-11.28,14.25,4.63-14.25Zm-21.52.8l10.58,13.36L1.74,19.48l1.67-4.45Zm29.55,0l1.67,4.45-12.24,8.9,10.58-13.36Z"/>
  </g>
</svg>