<?xml version="1.0" encoding="UTF-8"?>
<svg id="_Слой_2" data-name="Слой 2" xmlns="http://www.w3.org/2000/svg" viewBox="0 0 36.37 27.39">
  <defs>
    <style>
      .cls-1 {
        fill: #fff;
      }
    </style>
  </defs>
  <g id="_Слой_1-2" data-name="Слой 1">
    <path class="cls-1" d="m7.91,12.68h0V2.39l-.09-.07h0l-2.16-1.6C4.33-.25,2.44-.21,1.27.95.49,1.72,0,2.8,0,3.99v2.85l7.91,5.84Zm20.56-.01h0s7.91-5.83,7.91-5.83v-2.85c0-1.18-.47-2.25-1.25-3.03-1.15-1.15-2.98-1.29-4.29-.32l-2.27,1.68-.09.07v10.28Zm-18.98,1.17l8.23,6.08c.28.21.66.21.94,0l8.23-6.08V3.56l-8.7,6.43L9.49,3.56v10.28Zm18.98.81v11.95c0,.44.35.79.79.79h5.14c1.09,0,1.98-.88,1.98-1.98V8.81l-7.91,5.85Zm-20.56,0L0,8.81v16.61c0,1.09.88,1.98,1.98,1.98h5.14c.44,0,.79-.35.79-.79v-11.95Z"/>
  </g>
</svg>