<?xml version="1.0" encoding="UTF-8"?>
<svg id="_Слой_2" data-name="Слой 2" xmlns="http://www.w3.org/2000/svg" viewBox="0 0 26.88 36.37">
  <defs>
    <style>
      .cls-1 {
        fill: #fff;
      }
    </style>
  </defs>
  <g id="_Слой_1-2" data-name="Слой 1">
    <path class="cls-1" d="m13.44,0c-5.54,0-7.98,2.78-7.98,2.78-.45-.25-.96-.41-1.51-.41-1.75,0-3.16,1.42-3.16,3.16,0,1.47,1.01,2.7,2.37,3.05v7.92l-2.82,2.82c-.46.46-.46,1.21,0,1.68.23.23.53.35.84.35s.61-.12.84-.35l1.06-1.06c-.2,2.12-.71,3.11-.71,6.94,0,2,.97,4.14,2.8,5.8l-1.66,1.66c-.46.46-.46,1.21,0,1.68.23.23.53.35.84.35s.61-.12.84-.35l1.95-1.95c1.69.92,3.79,1.51,6.3,1.51s4.61-.58,6.3-1.51l1.95,1.95c.23.23.53.35.84.35s.61-.12.84-.35c.46-.46.46-1.21,0-1.68l-1.66-1.66c1.83-1.66,2.8-3.8,2.8-5.8,0-3.83-.52-4.83-.71-6.94l1.06,1.06c.23.23.53.35.84.35s.61-.12.84-.35c.46-.46.46-1.21,0-1.68l-2.82-2.82v-7.92c1.36-.35,2.37-1.58,2.37-3.05,0-1.75-1.42-3.16-3.16-3.16-.55,0-1.06.15-1.51.41,0,0-2.44-2.78-7.98-2.78ZM3.95,4.74c.24,0,.44.11.58.28-.25.41-.45.84-.59,1.3-.43,0-.78-.36-.78-.79s.35-.79.79-.79Zm18.98,0c.44,0,.79.35.79.79s-.35.78-.78.79c-.15-.46-.35-.89-.59-1.3.14-.17.34-.28.58-.28Zm-13.84.79c1.53,0,2.77,1.24,2.76,2.77,0,1.53-1.24,2.77-2.77,2.77-1.45,0-2.62-1.12-2.74-2.53.11.54.59.95,1.16.95.65,0,1.19-.53,1.19-1.19s-.53-1.19-1.19-1.19c-.57,0-1.05.41-1.16.95.12-1.42,1.3-2.53,2.74-2.53Zm8.7,0c1.53,0,2.77,1.24,2.77,2.77,0,1.53-1.24,2.77-2.77,2.77-1.53,0-2.77-1.24-2.77-2.77,0-1.53,1.24-2.77,2.77-2.76Zm-1.58,1.58c-.65,0-1.19.53-1.19,1.19s.53,1.19,1.19,1.19,1.19-.53,1.19-1.19-.53-1.19-1.19-1.19Zm-2.77,3.95c.87,0,1.58.35,1.58.79s-.71.79-1.58.79-1.58-.35-1.58-.79.71-.79,1.58-.79Zm2.77,1.97c.24.36.39.78.39,1.19s0,1.58-3.16,1.58-3.16-1.19-3.16-1.58c0-.42.15-.83.39-1.19.52.73,1.53,1.19,2.77,1.19s2.25-.46,2.77-1.19Zm-4.35,4.23c.46.08.98.12,1.58.12s1.12-.05,1.58-.12v.91c0,.44-.35.79-.79.79s-.79-.35-.79-.79c0,.44-.35.79-.79.79s-.79-.35-.79-.79v-.91Z"/>
  </g>
</svg>