<?xml version="1.0" encoding="UTF-8"?>
<svg id="_Слой_2" data-name="Слой 2" xmlns="http://www.w3.org/2000/svg" viewBox="0 0 33.21 36.98">
  <defs>
    <style>
      .cls-1 {
        fill: #fff;
      }
    </style>
  </defs>
  <g id="_Слой_1-2" data-name="Слой 1">
    <path class="cls-1" d="m16.64.04c5.19,0,10.38.02,15.56-.02.94,0,1.09.19.98,1.16-.38,3.24-.58,6.5-.87,9.76-.62,7.08-1.26,14.15-1.85,21.23-.08.95-.48,1.28-1.36,1.51-3.58.96-7.14,1.99-10.7,3.04-1.18.35-2.3.37-3.48.02-3.63-1.07-7.28-2.12-10.93-3.14-.78-.22-1.07-.61-1.14-1.45C2.12,23.76,1.33,15.39.57,7.01.38,4.9.41,2.77.03.67-.15-.27.57.05.95.05c3.96-.02,7.92-.01,11.89-.01,1.27,0,2.53,0,3.8,0Zm.28,7.84c-2.12,0-4.25.07-6.37-.03-1.1-.05-1.39.35-1.45,1.35-.2,3.05-.43,6.11-.76,9.15-.11,1.07.18,1.33,1.21,1.32,3.43-.06,6.86,0,10.29-.04.87,0,1.31.15,1.15,1.15-.14.88-.18,1.79-.21,2.68-.03.75-.4,1.08-1.11,1.2-1.99.34-3.96.38-5.96.02-.83-.15-1.25-.51-1.14-1.32.1-.73-.27-.77-.84-.79-2.98-.09-2.98-.1-2.95,2.85,0,.37.03.74.02,1.1-.02.68.3,1.04.95,1.21,1.07.27,2.12.6,3.18.89,1.69.46,3.37,1.02,5.16.55,1.77-.46,3.54-.95,5.32-1.39.61-.15.91-.46.93-1.09.15-3.3.43-6.6.85-9.88.11-.88-.19-1.12-1.05-1.11-2.78.04-5.55.02-8.33.02-3.14,0-3.12,0-2.68-3.18.08-.58.27-.76.83-.75,2.12.02,4.25.01,6.37,0,.56,0,.98.16.98.81,0,1.04.57,1.28,1.49,1.17.52-.07,1.06-.04,1.59,0,.65.04.89-.21.79-.86-.2-1.33-.38-2.67-.55-4-.09-.75-.37-1.08-1.23-1.05-2.16.08-4.33.03-6.49.03Z"/>
  </g>
</svg>