<?xml version="1.0" encoding="UTF-8"?>
<svg id="_Слой_2" data-name="Слой 2" xmlns="http://www.w3.org/2000/svg" viewBox="0 0 469.99 134.13">
  <defs>
    <style>
      .cls-1 {
        fill: #fff;
      }
    </style>
  </defs>
  <g id="_Слой_1-2" data-name="Слой 1">
    <g>
      <g>
        <rect class="cls-1" x="84.14" y="72.61" width="13.59" height="30.31" rx="1.14" ry="1.14" transform="translate(-35.42 90.01) rotate(-45)"/>
        <path class="cls-1" d="m108.55,95.78l-.99-.99c-.18-.18-.69.03-1.13.47l-8,8c-.44.44-.66.95-.47,1.13l.99.99c.18.18.69-.03,1.13-.47l8-8c.44-.44.66-.95.47-1.13Z"/>
        <rect class="cls-1" x="100.07" y="100.86" width="13.59" height="5.68" rx="1.14" ry="1.14" transform="translate(-42.03 105.94) rotate(-45)"/>
        <path class="cls-1" d="m83.91,71.14l-.99-.99c-.18-.18-.69.03-1.13.47l-8,8c-.44.44-.66.95-.47,1.13l.99.99c.18.18.69-.03,1.13-.47l8-8c.44-.44.66-.95.47-1.13Z"/>
        <rect class="cls-1" x="68.21" y="68.99" width="13.59" height="5.68" rx="1.14" ry="1.14" transform="translate(-28.83 74.07) rotate(-45)"/>
      </g>
      <g>
        <path class="cls-1" d="m117.51,52.03l-25.27-1.37c-.57-.03-1.05.45-1.09,1.08l-.61,11.3c-.03.62.4,1.15.96,1.18l25.27,1.37c.57.03,1.05-.45,1.09-1.07l.61-11.3c.03-.63-.4-1.16-.96-1.19Z"/>
        <path class="cls-1" d="m121.21,52.23l-1.26-.07c-.23-.01-.45.48-.48,1.11l-.61,11.3c-.03.63.13,1.14.36,1.16l1.26.07c.23.01.45-.48.48-1.11l.61-11.3c.03-.63-.13-1.14-.36-1.16Z"/>
        <path class="cls-1" d="m126.72,52.52l-3.07-.17c-.57-.03-1.05.45-1.08,1.08l-.61,11.3c-.03.63.4,1.16.96,1.19l3.07.17c.57.03,1.05-.45,1.08-1.08l.61-11.3c.03-.63-.4-1.16-.96-1.19Z"/>
        <path class="cls-1" d="m89.81,50.53l-1.26-.07c-.23-.01-.45.48-.48,1.11l-.61,11.3c-.03.63.13,1.14.36,1.16l1.26.07c.23.01.45-.48.48-1.11l.61-11.3c.03-.63-.13-1.14-.36-1.16Z"/>
        <path class="cls-1" d="m86.11,50.33l-3.07-.17c-.57-.03-1.05.45-1.08,1.08l-.61,11.3c-.03.63.4,1.16.96,1.19l3.07.17c.57.03,1.05-.45,1.08-1.08l.61-11.3c.03-.63-.4-1.16-.96-1.19Z"/>
      </g>
      <g>
        <path class="cls-1" d="m66.35,8l1.08,19.9c.02.45-.47.84-1.09.87l-11.3.61c-.62.03-1.15-.3-1.17-.75l-1.08-19.9c-.02-.45.47-.84,1.09-.87l11.3-.61c.63-.03,1.16.3,1.18.75Z"/>
        <path class="cls-1" d="m66.19,5.08l.05.99c0,.18-.49.36-1.12.39l-11.3.61c-.63.03-1.14-.09-1.15-.27l-.05-.99c0-.18.49-.36,1.12-.39l11.3-.61c.63-.03,1.14.09,1.15.27Z"/>
        <path class="cls-1" d="m65.96.75l.13,2.42c.02.45-.46.83-1.09.87l-11.3.61c-.63.03-1.15-.3-1.18-.74l-.13-2.42c-.02-.45.46-.83,1.09-.87L64.78,0c.63-.03,1.15.3,1.18.74Z"/>
        <path class="cls-1" d="m67.53,29.82l.05.99c0,.18-.49.36-1.12.39l-11.3.61c-.63.03-1.14-.09-1.15-.27l-.05-.99c0-.18.49-.36,1.12-.39l11.3-.61c.63-.03,1.14.09,1.15.27Z"/>
        <path class="cls-1" d="m67.69,32.73l.13,2.42c.02.45-.46.83-1.09.87l-11.3.61c-.63.03-1.15-.3-1.18-.74l-.13-2.42c-.02-.45.46-.83,1.09-.87l11.3-.61c.63-.03,1.15.3,1.18.74Z"/>
      </g>
      <g>
        <path class="cls-1" d="m93.34,15.55l-16.09,16.09c-.36.36-.29,1.01.15,1.46l8,8c.44.44,1.09.51,1.45.15l16.09-16.09c.36-.36.29-1.01-.15-1.45l-8-8c-.44-.44-1.1-.51-1.46-.15Z"/>
        <path class="cls-1" d="m95.7,13.19l-.8.8c-.15.15.09.63.54,1.07l8,8c.44.44.92.68,1.07.54l.8-.8c.15-.15-.09-.63-.54-1.07l-8-8c-.44-.44-.92-.68-1.07-.54Z"/>
        <path class="cls-1" d="m99.21,9.69l-1.95,1.95c-.36.36-.29,1.01.15,1.45l8,8c.44.44,1.09.51,1.45.15l1.95-1.95c.36-.36.29-1.01-.15-1.45l-8-8c-.44-.44-1.09-.51-1.45-.15Z"/>
        <path class="cls-1" d="m75.71,33.19l-.8.8c-.15.15.09.63.54,1.07l8,8c.44.44.92.68,1.07.54l.8-.8c.15-.15-.09-.63-.54-1.07l-8-8c-.44-.44-.92-.68-1.07-.54Z"/>
        <path class="cls-1" d="m73.35,35.54l-1.95,1.95c-.36.36-.29,1.01.15,1.45l8,8c.44.44,1.09.51,1.45.15l1.95-1.95c.36-.36.29-1.01-.15-1.45l-8-8c-.44-.44-1.09-.51-1.45-.15Z"/>
      </g>
      <path class="cls-1" d="m25.62,52.85c-4.17-4.17-10.95-4.17-15.13,0s-4.17,10.95,0,15.12,10.96,4.17,15.13,0c4.17-4.17,4.17-10.96,0-15.13Zm-11.61,11.61c-2.23-2.23-2.23-5.86,0-8.09,2.23-2.23,5.87-2.24,8.1,0,2.23,2.23,2.23,5.87,0,8.11-2.23,2.23-5.86,2.23-8.1,0Z"/>
      <path class="cls-1" d="m35.52,59.25c-.05-.52-.12-1.04-.21-1.55-.21.24-.33.57-.31.92.02.41.23.75.54.96,0-.11-.01-.22-.02-.33Z"/>
      <path class="cls-1" d="m30.51,99.81c-3.96-3.96-10.39-3.96-14.35,0-2.93,2.93-3.78,7.44-2.12,11.21.49,1.16,1.21,2.21,2.13,3.13,3.96,3.96,10.39,3.96,14.34,0,1.35-1.35,2.29-3.06,2.72-4.94.77-3.42-.25-6.93-2.72-9.41Zm-10.83,10.83c-.47-.47-.83-.99-1.08-1.59-.85-1.93-.42-4.23,1.08-5.72,2.02-2.02,5.3-2.02,7.32,0,1.26,1.26,1.78,3.06,1.39,4.8-.22.96-.7,1.83-1.39,2.52-2.02,2.02-5.3,2.01-7.31,0Z"/>
      <path class="cls-1" d="m61.64,115.86c-1.82-1.82-4.72-1.99-6.77-.34-.12.1-.26.22-.37.34-1.97,1.97-1.97,5.17,0,7.14,1.97,1.97,5.17,1.96,7.14,0,.11-.11.23-.25.37-.41,1.61-2.01,1.45-4.9-.37-6.72Zm-3.65,3.53l.03-.03s.05-.04.1.01c.04.04.01.09.04.06l-.04.05c-.07.07-.15-.07-.13-.09Z"/>
      <path class="cls-1" d="m50.72,117.06c.29-.87-.17-1.81-1.04-2.1l-13.47-4.52c-.87-.29-1.81.18-2.1,1.04-.21.62-.03,1.27.4,1.7.18.18.39.31.64.4l13.47,4.52c.87.29,1.81-.18,2.1-1.04Z"/>
      <path class="cls-1" d="m21.48,84.52l-.61-9.82c-.06-.91-.84-1.61-1.76-1.55-.91.06-1.61.84-1.55,1.76l.61,9.82c.02.36.16.69.38.95.33.39.83.63,1.38.6.91-.06,1.61-.84,1.55-1.76Z"/>
      <path class="cls-1" d="m61.05,63.17c3.27-3.24,3.29-8.53.05-11.8-3.24-3.27-8.53-3.29-11.8-.05-3.28,3.24-3.3,8.53-.06,11.8,3.24,3.28,8.54,3.3,11.8.05Zm-9.05-2.78c-1.73-1.75-1.71-4.59.04-6.32,1.75-1.73,4.58-1.72,6.31.03,1.74,1.75,1.73,4.59-.02,6.32-1.75,1.73-4.59,1.72-6.33-.03Z"/>
      <path class="cls-1" d="m88.31,100.44l-10.22-10.23-7.48,7.48c-2.34-1.4-5.43-1.1-7.45.92l-5.31,5.31-17.68-4.72c-1.07-1.29-2.72-2.88-4.5-4.37l-3.09-23.12c.22-.45.44-.95.66-1.49l13.08-1.68c2.48,1.22,6.96,2.58,9.72,2.33,7.62-.68,13.26-7.45,12.57-15.09-.7-7.62-7.47-13.26-15.09-12.57-3.02.28-7.66,3.07-9.88,4.84l-13.12.45c-3.63-3.71-8.84-5.81-14.41-5.28C6.35,44.15-.85,52.86.08,62.63c.37,3.87,3.97,9.8,6.26,12.63l.93,24.13c-.49.96-.89,1.99-1.2,3.06-1.85,6.38.05,13.07,4.52,17.53,1.54,1.55,3.39,2.83,5.5,3.74,3.94,1.7,10.89,1.41,14.86.44l21.47,9.09.15.06c5.38,1.88,11.45.49,15.48-3.54,1.59-1.59,2.78-3.48,3.53-5.62.16-.45.29-.91.4-1.38l7.67-7.67c1.92-1.92,2.29-4.81,1.11-7.11l7.55-7.55Zm-43.16-48.57l.52-.46c1.72-1.55,6.17-4.16,8.2-4.34,5.49-.49,10.37,3.57,10.88,9.06.28,3.1-.88,6-2.94,8.03-1.59,1.58-3.72,2.63-6.12,2.86-1.92.17-6.11-1.08-8.05-2.18l-.56-.31-12.46,1.61c.59-2.17.98-4.43.93-6.23l3.15-.21,5.33-.31c.71-.04,1.25-.66,1.21-1.37-.04-.71-.65-1.26-1.36-1.21l-5.97.35h-.18s-2.5.13-2.5.13c-.38-1.79-1.02-3.47-1.88-5.01l11.8-.41ZM5.02,62.16c-.66-7.04,4.52-13.32,11.56-14,3.97-.37,7.69,1.1,10.3,3.72,2.04,2.03,3.4,4.76,3.7,7.84.23,2.46-1.34,7.83-2.74,10.33l-.4.72,2.71,20.28c-.08-.04-.16-.07-.24-.11-.07-.03-.13-.06-.2-.09-.23-.1-.45-.2-.67-.28-.46-.16-.93-.29-1.39-.41-.13-.04-.27-.07-.4-.1-.36-.08-.72-.16-1.08-.22-.12-.02-.24-.05-.36-.06-.46-.07-.92-.13-1.38-.16-.09-.01-.19-.01-.28-.01-.37-.03-.75-.04-1.13-.03h-.42c-.37.02-.74.04-1.1.07-.1.01-.2.02-.3.03-.44.04-.88.11-1.31.19-.14.03-.28.06-.42.09-.31.07-.62.14-.93.22-.16.04-.31.09-.46.13-.37.11-.73.23-1.09.36-.13.05-.27.1-.4.16-.33.13-.65.27-.97.42-.17.07-.33.16-.49.24-.25.12-.49.26-.73.39-.16.09-.32.18-.48.27-.35.22-.69.44-1.03.68-.15.11-.29.22-.43.33-.15.11-.3.21-.44.33l-.79-20.18-.6-.67c-1.99-2.19-5.36-7.88-5.61-10.48Zm62.25,58.9v.02c-.09.49-.22.96-.38,1.42-.5,1.43-1.29,2.69-2.35,3.75-2.67,2.67-6.69,3.61-10.26,2.39l-23.03-9.75-.87.27c-3.14.99-9.57,1.18-12.32-.01-5.82-2.51-8.99-9.24-7.22-15.32.27-.95.64-1.84,1.12-2.67,3.02-5.48,9.51-7.96,15.43-5.9.12.05.26.1.4.16.99.46,2.45,1.42,4,2.66h.01c1.27,1.02,2.39,2.03,3.26,2.9.76.77,1.34,1.42,1.67,1.87l.52.71,16.55,4.41h-.01s7.07,1.88,7.07,1.88c4.57,1.64,7.32,6.44,6.41,11.21Zm8.87-9.48l-4.15,4.15c-.02-.06-.04-.13-.06-.2-.03-.13-.07-.26-.11-.39-.07-.26-.16-.52-.25-.78-.04-.13-.08-.25-.13-.38-.11-.29-.23-.57-.36-.86-.03-.08-.07-.16-.1-.24-.17-.35-.35-.7-.55-1.04-.05-.1-.11-.19-.17-.28-.15-.25-.3-.49-.47-.74-.07-.11-.15-.22-.23-.33-.16-.22-.33-.44-.5-.66-.09-.1-.16-.2-.25-.3-.23-.27-.47-.53-.72-.79-.03-.03-.05-.06-.08-.09-.01,0-.01-.01-.01-.01l-.21-.18c-.25-.25-.51-.49-.79-.72-.13-.11-.26-.21-.4-.31-.22-.18-.45-.35-.69-.52-.15-.11-.32-.2-.48-.3-.22-.15-.45-.29-.69-.43-.17-.09-.35-.18-.53-.27-.24-.12-.48-.24-.72-.35-.06-.02-.11-.05-.17-.08l3.36-3.36c.44-.44,1.15-.44,1.58-.01l7.88,7.88c.44.44.44,1.15,0,1.59Zm1.92-7.91l-3.2-3.2,3.23-3.23,3.2,3.2-3.23,3.23Z"/>
      <g>
        <path class="cls-1" d="m142.46,87.35v-52.67c0-.91.74-1.65,1.65-1.65h20.16c.91,0,1.65.74,1.65,1.65v52.67c0,.91-.74,1.65-1.65,1.65h-20.16c-.91,0-1.65-.74-1.65-1.65Z"/>
        <path class="cls-1" d="m180.31,87.35v-36.21c0-.91-.74-1.65-1.65-1.65h-7c-.91,0-1.65-.74-1.65-1.65v-13.17c0-.91.74-1.65,1.65-1.65h40.74c.91,0,1.65.74,1.65,1.65v13.17c0,.91-.74,1.65-1.65,1.65h-7c-.91,0-1.65.74-1.65,1.65v36.21c0,.91-.74,1.65-1.65,1.65h-20.16c-.91,0-1.65-.74-1.65-1.65Z"/>
        <path class="cls-1" d="m265.9,88.99h-20.16c-.91,0-1.65-.74-1.65-1.65v-8.23c0-.91-.74-1.65-1.65-1.65h0c-.91,0-1.65.74-1.65,1.65v8.23c0,.91-.74,1.65-1.65,1.65h-20.16c-.91,0-1.65-.74-1.65-1.65v-45.4c0-.44.17-.86.48-1.16l7.27-7.27c.31-.31.73-.48,1.16-.48h32.38c.44,0,.86.17,1.16.48l7.26,7.27c.31.31.48.73.48,1.16v45.4c0,.91-.74,1.65-1.65,1.65Zm-21.81-24.69v-13.17c0-.91-.74-1.65-1.65-1.65h0c-.91,0-1.65.74-1.65,1.65v13.17c0,.91.74,1.65,1.65,1.65h0c.91,0,1.65-.74,1.65-1.65Z"/>
        <path class="cls-1" d="m272.48,87.35v-52.67c0-.91.74-1.65,1.65-1.65h39.64c.44,0,.86.17,1.16.48l7.27,7.27c.31.31.48.73.48,1.16v38.14c0,.44-.17.86-.48,1.16l-7.27,7.27c-.31.31-.73.48-1.16.48h-39.64c-.91,0-1.65-.74-1.65-1.65Zm25.1-37.86h0c-.91,0-1.65.74-1.65,1.65v19.75c0,.91.74,1.65,1.65,1.65h0c.91,0,1.65-.74,1.65-1.65v-19.75c0-.91-.74-1.65-1.65-1.65Z"/>
        <path class="cls-1" d="m376.17,88.99h-10.7c-.91,0-1.65-.74-1.65-1.65v-4.94c0-.91-.74-1.65-1.65-1.65h0c-.91,0-1.65.74-1.65,1.65v4.94c0,.91-.74,1.65-1.65,1.65h-29.63c-.91,0-1.65-.74-1.65-1.65v-29.63c0-.91.74-1.65,1.65-1.65h23.45c.91,0,1.65-.74,1.65-1.65h0c0-.91-.74-1.65-1.65-1.65h-23.45c-.91,0-1.65-.74-1.65-1.65v-9.88c0-.91.74-1.65,1.65-1.65h46.91c.91,0,1.65.74,1.65,1.65v46.09c0,.91-.74,1.65-1.65,1.65Zm-21.81-18.1v-4.94c0-.91-.74-1.65-1.65-1.65h0c-.91,0-1.65.74-1.65,1.65v4.94c0,.91.74,1.65,1.65,1.65h0c.91,0,1.65-.74,1.65-1.65Z"/>
        <path class="cls-1" d="m390.51,88.51l-7.27-7.27c-.31-.31-.48-.73-.48-1.16V28.09c0-.91.74-1.65,1.65-1.65h20.16c.91,0,1.65.74,1.65,1.65v9.88c0,.91.74,1.65,1.65,1.65h7c.91,0,1.65.74,1.65,1.65v13.17c0,.91-.74,1.65-1.65,1.65h-7c-.91,0-1.65.74-1.65,1.65v16.46c0,.91.74,1.65,1.65,1.65h7c.91,0,1.65.74,1.65,1.65v9.88c0,.91-.74,1.65-1.65,1.65h-23.18c-.44,0-.86-.17-1.16-.48Z"/>
        <path class="cls-1" d="m468.35,88.99h-46.91c-.91,0-1.65-.74-1.65-1.65v-46.09c0-.91.74-1.65,1.65-1.65h46.91c.91,0,1.65.74,1.65,1.65v29.63c0,.91-.74,1.65-1.65,1.65h-23.45c-.91,0-1.65.74-1.65,1.65h0c0,.91.74,1.65,1.65,1.65h23.45c.91,0,1.65.74,1.65,1.65v9.88c0,.91-.74,1.65-1.65,1.65Zm-21.81-26.33v-4.94c0-.91-.74-1.65-1.65-1.65h0c-.91,0-1.65.74-1.65,1.65v4.94c0,.91.74,1.65,1.65,1.65h0c.91,0,1.65-.74,1.65-1.65Z"/>
      </g>
      <g>
        <path class="cls-1" d="m143.08,104.54v-10.84h2.74c.66,0,1.23.23,1.7.7.47.47.7,1.04.7,1.7v6.04c0,.67-.23,1.24-.7,1.7-.46.46-1.03.7-1.7.7h-2.74Zm3.79-2.4v-6.04c0-.29-.1-.53-.31-.74-.21-.2-.45-.3-.74-.3h-1.38v8.11h1.38c.29,0,.54-.1.74-.3.21-.2.31-.45.31-.74Z"/>
        <path class="cls-1" d="m151.72,93.47h.36c.65,0,1.21.23,1.69.68.46.46.7,1.03.7,1.69v8.7h-1.35v-3.9l-2.43.23v3.67h-1.36v-8.7c0-.65.24-1.21.71-1.69.47-.45,1.04-.68,1.69-.68Zm-1.04,2.37v3.68l2.43-.23v-3.45c0-.28-.1-.52-.3-.71-.2-.2-.45-.29-.74-.29h-.36c-.29,0-.53.1-.74.29-.2.2-.3.43-.3.71Z"/>
        <path class="cls-1" d="m157.97,95.02v9.52h-1.36v-9.52h-1.38v-1.36h4.12v1.36h-1.38Z"/>
        <path class="cls-1" d="m162.52,93.47h.36c.65,0,1.21.23,1.69.68.46.46.7,1.03.7,1.69v8.7h-1.35v-3.9l-2.43.23v3.67h-1.36v-8.7c0-.65.24-1.21.71-1.69.47-.45,1.04-.68,1.69-.68Zm-1.04,2.37v3.68l2.43-.23v-3.45c0-.28-.1-.52-.3-.71-.2-.2-.45-.29-.74-.29h-.36c-.29,0-.53.1-.74.29-.2.2-.3.43-.3.71Z"/>
        <path class="cls-1" d="m171.73,93.66v10.88h-1.36v-10.88h1.36Z"/>
        <path class="cls-1" d="m177.96,95.81v.54l-1.35.14v-.68c0-.29-.1-.53-.31-.74-.21-.2-.45-.3-.74-.3h-.34c-.29,0-.53.1-.74.3s-.3.45-.3.74v3.1c0,.09.05.2.14.33.11.08.23.12.34.11l1.33-.14c.54-.05,1,.1,1.38.45.14.15.25.27.31.39.13.21.22.42.25.63.02.06.03.17.03.31v1.42c0,.66-.23,1.23-.7,1.69-.46.47-1.03.7-1.7.7h-.34c-.66,0-1.23-.23-1.69-.7-.47-.47-.7-1.03-.7-1.69v-.54l1.36-.14v.68c0,.29.1.53.3.74.2.2.45.3.74.3h.34c.29,0,.54-.1.74-.3.21-.2.31-.45.31-.74v-1.42c0-.11-.05-.22-.15-.33-.08-.08-.19-.12-.33-.11l-1.33.14c-.4.05-.78-.04-1.13-.26-.03-.01-.11-.07-.25-.19-.4-.35-.6-.79-.6-1.33v-3.1c0-.66.23-1.23.7-1.7.47-.47,1.03-.7,1.69-.7h.34c.66,0,1.23.23,1.7.7.47.47.7,1.03.7,1.7Z"/>
        <path class="cls-1" d="m185.8,104.8h-.34c-.67,0-1.24-.23-1.7-.7-.46-.47-.7-1.03-.7-1.69v-6.59c0-.66.23-1.23.7-1.7.47-.47,1.03-.7,1.69-.7h.34c.66,0,1.23.23,1.7.7.47.47.7,1.03.7,1.7v6.59c0,.66-.23,1.23-.7,1.69s-1.04.7-1.7.7Zm-1.38-8.99v6.59c0,.29.1.53.3.74.2.2.45.3.74.3h.34c.29,0,.53-.1.74-.3s.3-.45.3-.74v-6.59c0-.29-.1-.53-.3-.74-.2-.2-.45-.3-.74-.3h-.34c-.29,0-.53.1-.74.3s-.3.45-.3.74Z"/>
        <path class="cls-1" d="m194.41,93.64v10.9h-2.74c-.66,0-1.22-.23-1.69-.7-.46-.47-.7-1.03-.7-1.69v-8.48h1.35v8.48c0,.29.1.53.3.74s.45.3.74.3h1.39v-9.54h1.35Z"/>
        <path class="cls-1" d="m198.3,100.58l-1.44.14v3.82h-1.36v-10.9h2.74c.66,0,1.23.23,1.7.7.47.47.7,1.04.7,1.7v2.38c0,.59-.21,1.09-.62,1.5.41.44.62.96.62,1.55v3.07h-1.36v-3.07c0-.27-.1-.49-.29-.67-.19-.18-.41-.25-.68-.23Zm-.06-5.57h-1.38v4.35l1.3-.12h.02l.4-.05c.2-.01.36-.09.5-.24.13-.15.2-.32.2-.52v-2.38c0-.29-.1-.53-.3-.74s-.45-.3-.74-.3Z"/>
        <path class="cls-1" d="m207.1,100.87v3.67h-1.36v-10.88h4.12v1.36h-2.76v4.5l2.48-.25v1.36l-2.48.23Z"/>
        <path class="cls-1" d="m215.99,93.64v10.9h-2.74c-.66,0-1.22-.23-1.69-.7-.46-.47-.7-1.03-.7-1.69v-8.48h1.35v8.48c0,.29.1.53.3.74s.45.3.74.3h1.39v-9.54h1.35Z"/>
        <path class="cls-1" d="m219.81,95.02v9.52h-1.36v-9.52h-1.38v-1.36h4.12v1.36h-1.38Z"/>
        <path class="cls-1" d="m227.32,93.64v10.9h-2.74c-.66,0-1.22-.23-1.69-.7-.46-.47-.7-1.03-.7-1.69v-8.48h1.35v8.48c0,.29.1.53.3.74s.45.3.74.3h1.39v-9.54h1.35Z"/>
        <path class="cls-1" d="m231.21,100.58l-1.44.14v3.82h-1.36v-10.9h2.74c.66,0,1.23.23,1.7.7.47.47.7,1.04.7,1.7v2.38c0,.59-.21,1.09-.62,1.5.41.44.62.96.62,1.55v3.07h-1.36v-3.07c0-.27-.1-.49-.29-.67-.19-.18-.41-.25-.68-.23Zm-.06-5.57h-1.38v4.35l1.3-.12h.02l.4-.05c.2-.01.36-.09.5-.24s.2-.32.2-.52v-2.38c0-.29-.1-.53-.3-.74s-.45-.3-.74-.3Z"/>
        <path class="cls-1" d="m238.73,103.18v1.36h-4.12v-10.88h4.12v1.36h-2.76v4.5l2.49-.25v1.36l-2.49.23v2.31h2.76Z"/>
      </g>
    </g>
  </g>
</svg>