<?xml version="1.0" encoding="UTF-8"?>
<svg id="_Слой_2" data-name="Слой 2" xmlns="http://www.w3.org/2000/svg" viewBox="0 0 38.29 47.58">
  <defs>
    <style>
      .cls-1 {
        fill: #fff;
      }
    </style>
  </defs>
  <g id="_Слой_1-2" data-name="Слой 1">
    <g>
      <path class="cls-1" d="m8.03,37.22c-.67.53-1.51.23-2.2.55-.6.27-1.31.44-1.37,1.21-.06.77.67.96,1.2,1.22,2.23,1.06,4.65,1.2,7.05,1.36,5.26.34,10.53.35,15.72-.81.92-.21,1.8-.52,2.65-.92.94-.45,1.75-1.04,2.08-2.12.07-.22.22-.52.39-.57.34-.09.43.3.58.52.72,1.05.65,1.83-.28,2.72-1.31,1.26-2.99,1.84-4.7,2.24-6.55,1.52-13.17,1.69-19.83.9-2.2-.26-4.35-.66-6.4-1.53-.94-.4-1.84-.88-2.5-1.71-.44-.57-.59-1.14-.15-1.79,1.22-1.83,5.84-2.61,7.76-1.25Z"/>
      <path class="cls-1" d="m18.19,23.52c-2.24-1.77-4.6-3.4-5.96-6.01-1.38-2.64-1.16-4.24.86-6.41,1.2-1.28,2.56-2.39,3.93-3.49.92-.74,1.85-1.48,2.71-2.28,1.55-1.45,3.1-2.91,3.06-5.32,1.02,1.95,1.16,3.91.17,5.87-.84,1.65-2.11,2.99-3.37,4.32-1.21,1.27-2.49,2.47-3.58,3.85-.98,1.24-1.17,2.55-.51,3.99.84,1.84,1.66,3.7,2.69,5.48Z"/>
      <path class="cls-1" d="m28.3,25.16c-1.4,1.4-3.02,2.22-5.01,2.46-5.56.67-11.12,1.19-16.69.12-.81-.15-1.6-.34-2.3-.79-1.06-.69-1.08-1.31-.11-2.1.75-.62,1.66-.9,2.58-1.03,1.84-.27,3.7-.44,5.58-.55-.69.61-1.62.62-2.39,1.01-.39.2-.96.41-.93.87.04.55.72.49,1.1.53,2.56.25,5.13.33,7.7.21,3.48-.16,6.98-.16,10.45-.72Z"/>
      <path class="cls-1" d="m29.63,7.51c-1.81,1.24-3.56,2.5-5.15,3.96-2.12,1.95-2.29,2.79-.96,5.29.27.5.55,1,.8,1.51,1.14,2.27.64,4.2-1.49,5.59-.59.39-1.17.83-1.86,1.01-.2-.3-.09-.47.05-.63,1.34-1.46,1.31-2.97.21-4.55-.51-.74-.98-1.51-1.4-2.3-1.18-2.26-.89-4.5.92-6.27,2.45-2.38,5.57-3.24,8.86-3.62Z"/>
      <path class="cls-1" d="m26.78,31.71c-5.31,1.85-10.58,2.21-15.94,1.14-.96-.19-1.9-.48-2.73-1.02-.94-.62-.97-1.02-.1-1.78.42-.38.9-.7,1.39-.98.27-.16.77-.26.87.07.52,1.72,2.06,1.65,3.3,1.73,3.13.18,6.28.2,9.35-.56,1.64-.41,2.68.44,3.86,1.41Z"/>
      <path class="cls-1" d="m16.61,38.28c-2.34.03-4.45-.09-6.42-1.03-1.22-.59-1.34-1.45-.32-2.36.33-.3.72-.53,1.08-.8.45-.32.88-.32,1.11.21.38.86,1.13.95,1.91,1.04,2.8.34,5.53,0,8.25-.67,1.03-.26,2.89.47,3.45,1.34.31.48.04.61-.4.73-1.5.39-2.97.89-4.48,1.21-1.44.3-2.91.39-4.18.32Z"/>
      <path class="cls-1" d="m8.29,45.23c10.28,1.42,20.45,2.1,30.01-3.84-.34,1.22-1,1.95-1.79,2.58-2.28,1.83-5.02,2.49-7.8,2.98-6.75,1.2-13.4.69-19.94-1.35-.15-.05-.29-.13-.42-.21-.03-.02-.03-.07-.06-.16Z"/>
      <path class="cls-1" d="m30.51,24.19c1.42-.93,2.87-1.3,4.34-.39,1.47.91,1.8,2.34,1.59,3.94-.22,1.72-1.17,3-2.58,3.97-1.35.93-2.88,1.38-4.46,1.82-.08-.61.4-.66.65-.86,1.43-1.19,2.64-2.55,3.29-4.32.81-2.22.05-3.53-2.27-4.03-.19-.04-.38-.08-.57-.12Z"/>
    </g>
  </g>
</svg>