<?xml version="1.0" encoding="UTF-8"?>
<svg id="_Слой_2" data-name="Слой 2" xmlns="http://www.w3.org/2000/svg" viewBox="0 0 41.18 41.18">
  <defs>
    <style>
      .cls-1 {
        fill: #fff;
      }
    </style>
  </defs>
  <g id="_Слой_1-2" data-name="Слой 1">
    <path class="cls-1" d="m41.18,20.72c0,5.51,0,11.02,0,16.54,0,2.9-1,3.92-3.9,3.92-11.15,0-22.29,0-33.44,0-2.77,0-3.82-1.01-3.82-3.75-.02-11.27-.02-22.54,0-33.81C.02,1.09,1.07.02,3.6.02,14.91,0,26.22,0,37.53.01c2.58,0,3.64,1.1,3.65,3.68.01,5.68,0,11.35,0,17.03Zm-9.93,16.53c.13,0,.54.03.95,0,3.42-.25,5.43-2.81,4.98-6.19-.26-1.95-1.4-3.17-3-4.04-1.32-.72-2.73-1.29-4.03-2.03-1.04-.6-1.26-1.47-.75-2.24.51-.77,1.62-.98,2.51-.46.28.16.54.37.76.61.52.56,1.05.51,1.63.1.37-.26.73-.52,1.11-.76.66-.41.73-.83.23-1.48-1.51-1.94-3.55-2.36-5.81-2.04-2.28.32-3.85,1.72-4.29,3.64-.54,2.36.3,4.57,2.33,5.84,1.03.65,2.15,1.16,3.25,1.69.52.25,1.03.49,1.46.87,1.04.91.81,2.3-.46,2.84-1.25.53-2.79.19-3.69-1.11-.78-1.14-1.46-1.2-2.4-.32-.24.22-.52.39-.8.57-.77.5-.74,1.07-.2,1.73,1.53,1.9,3.44,2.96,6.21,2.79Zm-8.69-10.95c0-1.93,0-3.4,0-4.86,0-2.84,0-2.81-2.86-2.83-.87,0-1.09.24-1.08,1.09.05,3.67.04,7.34,0,11.01-.01.98-.15,2-1.29,2.41-1.11.39-2.05-.02-2.71-.88-.6-.78-1.16-.74-1.86-.24-.33.23-.68.46-1.03.65-.95.51-1,1.1-.31,1.93,2.02,2.41,4.54,3.2,7.55,2.44,1.88-.47,3.01-1.68,3.37-3.61.47-2.51.08-5.05.22-7.11Z"/>
  </g>
</svg>