<?xml version="1.0" encoding="UTF-8"?>
<svg id="_Слой_2" data-name="Слой 2" xmlns="http://www.w3.org/2000/svg" viewBox="0 0 28.47 39.54">
  <defs>
    <style>
      .cls-1 {
        fill: #fff;
      }
    </style>
  </defs>
  <g id="_Слой_1-2" data-name="Слой 1">
    <path class="cls-1" d="m24.51,0c-1.74,0-3.16,1.42-3.16,3.16s1.42,3.16,3.16,3.16,3.16-1.42,3.16-3.16-1.42-3.16-3.16-3.16ZM2.77,2.37c-1.53,0-2.77,1.24-2.77,2.77s1.24,2.77,2.77,2.77,2.77-1.24,2.77-2.77-1.24-2.77-2.77-2.77Zm12.26,3.13c-5.92,0-11.3,3.71-13.39,9.22-.13.35,0,.75.32.95s.73.15.99-.12c2.51-2.63,7.14-4.26,12.08-4.26s9.57,1.63,12.08,4.26c.15.16.36.24.57.24.15,0,.29-.04.42-.12.32-.2.45-.6.32-.95-2.09-5.52-7.48-9.22-13.39-9.22ZM2.47,23.71c-.18-.02-.36.02-.52.12-.32.2-.45.6-.32.95,2.09,5.52,7.48,9.22,13.39,9.22s11.3-3.71,13.39-9.22c.13-.35,0-.75-.32-.95-.32-.2-.73-.15-.99.12-2.51,2.63-7.14,4.26-12.08,4.26s-9.56-1.63-12.08-4.26c-.13-.14-.3-.22-.48-.24Zm1.88,8.71c-1.96,0-3.56,1.6-3.56,3.56s1.6,3.56,3.56,3.56,3.56-1.6,3.56-3.56-1.6-3.56-3.56-3.56Z"/>
  </g>
</svg>