<?xml version="1.0" encoding="UTF-8"?>
<svg id="_Слой_2" data-name="Слой 2" xmlns="http://www.w3.org/2000/svg" viewBox="0 0 40.84 41.12">
  <defs>
    <style>
      .cls-1 {
        fill: #fff;
      }
    </style>
  </defs>
  <g id="_Слой_1-2" data-name="Слой 1">
    <g>
      <path class="cls-1" d="m40.25.11C26.7,13.52,13.41,26.66.07,39.84c-.16-.11,0-.47,0-.76-.01-5.47,0-10.95-.02-16.42,0-.8.24-1.39.8-1.95C7.5,14.08,14.14,7.44,20.78.79,21.26.3,21.78,0,22.5,0c5.6.01,11.19,0,16.79.01.19,0,.38.04.97.1Z"/>
      <path class="cls-1" d="m40.83,41.12H2.22c.81-.86,1.45-1.57,2.12-2.25,5.48-5.49,10.96-10.97,16.44-16.47.51-.51.86-.88,1.57-.16,6.02,6.1,12.08,12.17,18.12,18.25.15.16.43.26.37.63Z"/>
      <path class="cls-1" d="m.06,18.02C.06,12.38.07,6.55.05.72.05.21.19,0,.74,0c5.75.02,11.5.02,17.26.04.07,0,.14.06.06.02C12.08,6.03,6.05,12.04.06,18.02Z"/>
    </g>
  </g>
</svg>