<?xml version="1.0" encoding="UTF-8"?>
<svg id="_Слой_2" data-name="Слой 2" xmlns="http://www.w3.org/2000/svg" viewBox="0 0 49 26.39">
  <defs>
    <style>
      .cls-1 {
        fill: #fff;
      }
    </style>
  </defs>
  <g id="_Слой_1-2" data-name="Слой 1">
    <g>
      <path class="cls-1" d="m0,16.33q2.89-.97,4.16,1.84c.59,1.3,1.16,2.61,1.74,3.91.11.25.15.6.54.56.38-.04.32-.41.42-.65.75-1.71,1.49-3.43,2.3-5.12.46-.95,1.25-1.35,2.33-1.08,1.05.26,1.26,1.03,1.26,1.96,0,1.92-.04,3.84.02,5.76.02.79-.28.95-.99.94-.69,0-1.03-.1-1-.92.06-1.86.02-3.73.02-5.73-.67.29-.71.81-.89,1.21-.62,1.42-1.21,2.85-1.83,4.27-.29.67-.74,1.16-1.57,1.16-.83,0-1.41-.39-1.74-1.12-.63-1.41-1.24-2.84-1.84-4.26-.19-.44-.28-.94-.78-1.33-.32.85-.13,1.69-.17,2.5-.03.73,0,1.47,0,2.2q0,2-1.96,2v-8.09Z"/>
      <path class="cls-1" d="m35.75,15.59c4.07,0,4.44.37,4.44,4.46,0,1.26.12,2.53-.64,3.67-.23.33,0,.61.25.85.18.16.37.39.25.64-.12.26-.43.17-.65.17-.28,0-.69.05-.82-.11-.97-1.2-2.3-.79-3.53-.85-.41-.02-.82.02-1.22-.03-1.67-.2-2.39-.97-2.45-2.65-.04-1.14-.02-2.29,0-3.43.02-1.93.75-2.67,2.67-2.71.57-.01,1.14,0,1.71,0Zm2.48,7.37c0-1.14,0-2.11,0-3.08,0-3.36.46-3.37-3.57-3.32-.93,0-1.35.41-1.34,1.33.01,1.35-.02,2.69,0,4.04.02,1.42,1.2,2.09,2.33,1.23.82-.63,1.56-.78,2.57-.2Z"/>
      <path class="cls-1" d="m21.57,21.77c0,.65.01,1.3,0,1.96-.03,1.7-.82,2.56-2.54,2.63-1.51.06-3.02.02-4.52,0-.3,0-.7.11-.73-.4-.03-.53.33-.57.73-.57,1.39,0,2.77.02,4.16-.01.31,0,.86.23.9-.3.05-.6-.49-.65-.96-.65-1.02-.02-2.03-.04-3.04-.23-1.24-.24-1.82-.98-1.82-2.21,0-.77.04-1.55-.01-2.32-.05-.77.07-1.15,1.02-1.16,1.02-.01.99.51.96,1.21-.03.81.04,1.63-.02,2.44-.07.98.39,1.27,1.29,1.31,2.64.11,2.64.14,2.64-2.43,0-.45.03-.9,0-1.34-.06-.73-.01-1.19.98-1.18.99,0,1.03.47.99,1.2-.04.69,0,1.39,0,2.08Z"/>
      <path class="cls-1" d="m25.5,24.41c-.79,0-1.48.02-2.17-.01-.27-.01-.72.19-.74-.36-.02-.49.3-.61.72-.61,1.22,0,2.45-.06,3.67.02,1.25.08,1.46-.53,1.49-1.62.04-1.18-.54-1.38-1.49-1.36-.93.02-1.87.07-2.79-.23-1-.33-1.59-.94-1.63-2.03-.04-1.1.4-1.94,1.46-2.29,1.94-.64,3.96-.27,5.95-.32.31,0,.41.2.4.49-.02.39-.27.45-.58.45-1.22,0-2.45.01-3.67,0-.96,0-1.63.17-1.64,1.41,0,1.22.52,1.58,1.62,1.56.89-.02,1.79-.04,2.67.21.84.24,1.53.58,1.61,1.57.09,1.03-.07,1.93-1.05,2.54-1.24.78-2.6.5-3.83.56Z"/>
      <path class="cls-1" d="m34.79,12.64c-.65,1.1-1.12,1.13-1.76.05-.49-.83-.7-1.79-.56-2.71.41-2.66-.72-4.85-1.98-7.01-.31-.53-.62-1.05-.77-1.66-.23-.93.22-1.5,1.14-1.24,4.52,1.29,8.72,3.06,10.7,7.85.23.56.56,1.09.77,1.66.45,1.2,1.19,2.08,2.37,2.65.83.41,1.59.99,2.34,1.55.31.23.72.57.63.98-.09.42-.62.46-.98.64-.34.17-.96-.08-1,.46-.03.41.47.61.8.84.49.35.97.71,1.4,1.16-1.34-.21-2.4-.96-3.24-1.96-.51-.61-.21-1.06.6-1.08.59-.02,1.51.32,1.68-.28.22-.78-.88-.76-1.32-1.18-.15-.14-.32-.29-.51-.33-2.41-.53-3.23-2.48-4.07-4.47-1.47-3.5-3.78-6.06-7.7-6.82-.51-.1-.97-.42-1.47-.6-.47-.16-.98-.74-1.42-.26-.49.53.07,1.07.36,1.53.62,1.01,1.1,2.09,1.63,3.15.57,1.14.76,2.3.55,3.55-.12.73-.14,1.47.05,2.19.24.92.72,1.55,1.8,1.38l-.04-.04Z"/>
      <path class="cls-1" d="m43.14,19.39c0,.9.04,1.8-.01,2.69-.06.96.41,1.34,1.3,1.35,1.26,0,2.53,0,3.79.02.34,0,.78-.12.79.48,0,.59-.44.48-.78.48-1.39.01-2.77.04-4.16,0-2.02-.07-2.87-.96-2.89-2.99-.02-1.63.04-3.26-.02-4.89-.03-.77.22-.95.96-.96.78,0,1.09.18,1.03,1.01-.07.93-.02,1.87-.02,2.81Z"/>
      <path class="cls-1" d="m34.83,12.68c-.13-.47-.27-.93-.39-1.4-.06-.26-.24-.6.15-.72.32-.11.51.17.65.42.51.9,1.01,1.8,1.68,3.01-.82-.69-1.27-1.41-2.14-1.35,0,0,.04.04.04.04Z"/>
    </g>
  </g>
</svg>