<?xml version="1.0" encoding="UTF-8"?>
<svg id="_Слой_2" data-name="Слой 2" xmlns="http://www.w3.org/2000/svg" viewBox="0 0 46.95 25.35">
  <defs>
    <style>
      .cls-1 {
        fill: #fff;
      }
    </style>
  </defs>
  <g id="_Слой_1-2" data-name="Слой 1">
    <g>
      <path class="cls-1" d="m23.74,0c5.71-.03,11.21.93,16.33,3.58,1.46.76,2.79,1.68,3.97,2.84,4.16,4.1,3.85,9.58-.81,13.12-3.48,2.64-7.48,4.1-11.72,4.96-7.59,1.53-15.02,1-22.25-1.81-1.95-.75-3.78-1.74-5.46-2.99C-.99,16.16-1.31,10.07,3.17,6.14,6.48,3.23,10.55,1.89,14.75.9,17.71.2,20.72-.01,23.74,0Zm-11.08,7.74c-.74,0-1.47.03-2.21,0-.58-.03-.91.14-1.02.76-.55,3.05-1.13,6.09-1.68,9.14-.05.28-.22.79.2.84.76.09,1.58.14,2.3-.06.62-.17.4-.92.37-1.41-.05-1.1.48-1.46,1.48-1.42.98.04,1.96-.04,2.93-.21,1.5-.27,2.5-1.1,3.05-2.52,1.11-2.87-.29-5.02-3.35-5.11-.69-.02-1.39,0-2.08,0Zm20.63,0s0,0,0,0c-.78,0-1.55.03-2.33,0-.51-.02-.76.21-.85.66-.6,3.12-1.2,6.24-1.78,9.36-.05.24-.16.69.22.72.77.06,1.58.12,2.3-.07.62-.17.39-.92.37-1.41-.05-1.11.5-1.45,1.49-1.41,1.02.04,2.04-.05,3.04-.24,1.98-.38,3.4-2.3,3.27-4.4-.12-1.89-1.46-3.07-3.66-3.18-.69-.04-1.39,0-2.08,0Zm-7.16,7.8c1.15.31,1.58-.28,1.73-1.37.12-.93.44-1.82.59-2.75.43-2.61-.32-3.52-2.97-3.7-.84-.06-1.97.39-2.44-.24-.45-.62.27-1.61.33-2.46.03-.41.56-1.25-.39-1.17-.77.06-1.95-.78-2.27.79-.62,3.07-1.27,6.14-1.95,9.2-.48,2.13-.31,1.64,1.46,1.73.79.04,1.17-.18,1.25-1.05.09-1.05.37-2.08.58-3.12.39-1.86.73-2.03,2.66-1.62.82.17,1.13.56.97,1.35-.2,1.04-.32,2.11-.64,3.11-.37,1.12-.1,1.52,1.09,1.29Z"/>
      <path class="cls-1" d="m12.53,13.62c-.4-.14-1.17.36-1.13-.7.08-2.27.55-3.2,1.72-3.22,1.72-.02,2.65.49,2.69,1.48.05,1.43-1.24,2.4-3.27,2.44Z"/>
      <path class="cls-1" d="m33.13,13.62c-.4-.13-1.17.35-1.15-.7.04-2.16.58-3.21,1.71-3.22,1.71-.02,2.67.51,2.7,1.47.05,1.45-1.2,2.4-3.26,2.45Z"/>
    </g>
  </g>
</svg>