<?xml version="1.0" encoding="UTF-8"?>
<svg id="_Слой_2" data-name="Слой 2" xmlns="http://www.w3.org/2000/svg" viewBox="0 0 45.17 45.14">
  <defs>
    <style>
      .cls-1 {
        fill: #fff;
      }
    </style>
  </defs>
  <g id="_Слой_1-2" data-name="Слой 1">
    <g>
      <path class="cls-1" d="m14.08,12.78c2,0,4,.04,6-.03.48-.02,1.46.54,1.42-.49-.04-.93-.98-.42-1.48-.43-2.37-.06-4.74-.07-7.11,0-.87.02-1.26-.15-1.18-1.12.14-1.54-.07-3.09.19-4.64.4-2.3,1.69-3.89,3.76-4.79,3.55-1.55,7.22-1.66,10.87-.42,3.03,1.03,4.77,3.66,4.79,6.99.02,3.59,0,7.19,0,10.78,0,2.73-1.2,3.94-3.98,3.96-3.39.02-6.78.11-10.17-.03-2.52-.1-4.78,1.64-4.5,4.52.14,1.5.02,3.02.03,4.53,0,.43.01.8-.61.79-1.8-.04-3.6.08-5.39-.08-2.83-.27-4.75-1.9-5.72-4.52-1.18-3.18-1.37-6.46-.37-9.73,1.08-3.52,3.39-5.23,7.06-5.27,2.12-.03,4.25,0,6.37,0Zm3.55-3.92c1.27-.02,1.97-.72,1.96-1.96,0-1.24-.73-1.96-1.96-1.96-1.26,0-1.99.78-1.96,2.09.03,1.12.8,1.84,1.96,1.82Z"/>
      <path class="cls-1" d="m31.02,32.38c-2.21,0-4.41,0-6.62,0-.35,0-.88-.23-.88.48,0,.71.54.48.88.48,2.65.02,5.31.04,7.96,0,.74-.01,1.01.18.96.95-.07,1.02-.01,2.04-.02,3.06-.02,3.58-1.84,6.04-5.29,7.05-3.52,1.03-7.01,1.09-10.39-.54-2.54-1.23-3.89-3.29-3.92-6.14-.03-3.47-.02-6.94,0-10.41.01-2.22.92-3.31,3.1-3.64,1.86-.28,3.75-.09,5.63-.11,1.96-.03,3.92.01,5.88-.01,2.59-.04,4-1.44,4.03-4.04.03-1.88.02-3.76-.03-5.63-.02-.86.28-1.15,1.14-1.12,1.43.06,2.86-.03,4.29.03,2.91.12,5.1,1.46,6.25,4.16,1.52,3.57,1.56,7.26.15,10.85-1.17,2.99-3.52,4.51-6.75,4.57-2.12.04-4.25,0-6.37,0Zm-1.63,5.93c0-1.26-.7-1.99-1.92-2-1.26-.02-2.03.76-2.03,2.05,0,1.1.81,1.88,1.94,1.88,1.28,0,2-.69,2.01-1.92Z"/>
    </g>
  </g>
</svg>