<?xml version="1.0" encoding="UTF-8"?>
<svg id="_Слой_2" data-name="Слой 2" xmlns="http://www.w3.org/2000/svg" viewBox="0 0 45.07 33.38">
  <defs>
    <style>
      .cls-1 {
        fill: #fff;
      }
    </style>
  </defs>
  <g id="_Слой_1-2" data-name="Слой 1">
    <g>
      <path class="cls-1" d="m26.05.02C32.01.02,37.98.05,43.94,0c.94,0,1.14.26,1.14,1.16-.04,7.96-.03,15.92,0,23.88,0,1.19-.4,2.13-1.24,2.94-1.5,1.45-2.98,2.91-4.46,4.38-.71.7-1.52,1.01-2.53,1.01-11.88-.02-23.76-.02-35.64.01-.99,0-1.23-.29-1.2-1.23.25-7.88.2-15.75.04-23.63-.03-1.24.27-2.3,1.23-3.19,1.52-1.42,2.99-2.89,4.46-4.37C6.49.2,7.4.02,8.42.02c5.88,0,11.76,0,17.64,0Zm-1.6,15.81c.07-1.1-.02-2.36-.25-3.6-.51-2.74-1.62-5.08-4.53-5.99-1.7-.53-3.46-.45-5.21-.2-2.85.41-4.47,2.13-5.18,4.84-.65,2.48-.74,5.02-.38,7.53.78,5.52,2.69,7.12,8.26,7.09.89,0,1.41.21,1.78,1.05.36.81.91,1.54,1.39,2.3.23.36.47.62.99.51,2.4-.5,2.68-1.1,1.42-3.09-.02-.03-.04-.08-.06-.1-.96-1.04-1.21-1.99.08-3.04.69-.56.95-1.5,1.18-2.38.4-1.55.53-3.13.51-4.9Zm3.93,2.97s0,0,.01,0c0,1.1-.05,2.21.01,3.3.13,2.2.98,3.18,2.94,3.37,1.01.1,2.03.04,3.05-.08.69-.08.84-.4.86-1.03.04-1.79.06-1.79-1.69-1.79-.16,0-.33,0-.49,0-1.4-.02-1.73-.33-1.75-1.74-.02-1.71.04-3.43-.03-5.14-.04-.86.31-1.03,1.06-.98.69.05,1.39-.03,2.08.02.66.05.87-.22.81-.84-.04-.36-.05-.74,0-1.1.1-.79-.19-1.07-1-1.03-.92.04-2.14.41-2.71-.15-.64-.62-.13-1.85-.21-2.82-.01-.16,0-.33,0-.49,0-.31-.17-.38-.45-.44-1.97-.43-2.48-.03-2.48,1.97,0,.29-.03.58,0,.86.11.8-.12,1.26-1.03,1.1-.75-.13-1.04.18-.95.94.06.48.02.98.01,1.47,0,.34.12.59.48.52,1.57-.3,1.55.67,1.49,1.76-.05.77,0,1.55,0,2.32Z"/>
      <path class="cls-1" d="m11.73,15.88c-.07-1.23.07-2.43.33-3.64.43-1.97,1.64-3.04,3.59-3.29,2.29-.3,4.97.14,5.59,3.68.39,2.2.38,4.38-.04,6.57-.54,2.84-2.49,3.66-5.83,3.3-1.97-.21-2.99-1.47-3.39-3.33-.23-1.08-.31-2.18-.24-3.28Z"/>
    </g>
  </g>
</svg>