<?xml version="1.0" encoding="UTF-8"?>
<svg id="_Слой_2" data-name="Слой 2" xmlns="http://www.w3.org/2000/svg" viewBox="0 0 36.37 36.37">
  <defs>
    <style>
      .cls-1 {
        fill: #fff;
      }
    </style>
  </defs>
  <g id="_Слой_1-2" data-name="Слой 1">
    <path class="cls-1" d="m18.19,0c10.04,0,18.19,8.14,18.19,18.19s-8.14,18.19-18.19,18.19S0,28.23,0,18.19,8.14,0,18.19,0Zm6.27,25.6c.33-1.03,1.9-11.26,2.1-13.27.06-.61-.13-1.02-.51-1.2-.46-.22-1.13-.11-1.92.17-1.08.39-14.85,6.23-15.64,6.57-.75.32-1.47.67-1.47,1.18,0,.36.21.56.79.76.61.22,2.13.68,3.03.93.87.24,1.86.03,2.41-.31.59-.36,7.36-4.9,7.84-5.29.49-.4.87.11.48.51-.4.4-5.04,4.91-5.66,5.53-.74.76-.22,1.54.28,1.86.57.36,4.67,3.11,5.29,3.55s1.24.64,1.82.64.88-.76,1.16-1.63Z"/>
  </g>
</svg>