<?xml version="1.0" encoding="UTF-8"?>
<svg id="_Слой_2" data-name="Слой 2" xmlns="http://www.w3.org/2000/svg" viewBox="0 0 44.96 45.01">
  <defs>
    <style>
      .cls-1 {
        fill: #fff;
      }
    </style>
  </defs>
  <g id="_Слой_1-2" data-name="Слой 1">
    <g>
      <path class="cls-1" d="m44.93,22.5c0-.51,0-1.03,0-1.54-.02-.58-.06-1.16-.16-1.74-.19-1.11-.43-2.21-.77-3.29-.47-1.53-1.09-3-1.87-4.4-1.21-2.17-2.77-4.06-4.6-5.74-2.16-1.97-4.62-3.45-7.37-4.44-1.47-.52-2.98-.9-4.53-1.13-.94-.13-1.88-.21-2.82-.23-1.29-.02-2.58.08-3.85.28-.81.13-1.61.3-2.4.52-2.05.57-3.98,1.41-5.8,2.51-2.14,1.3-4,2.94-5.6,4.86-1.5,1.79-2.68,3.78-3.55,5.94-.57,1.41-.98,2.85-1.27,4.35-.14.76-.26,1.53-.3,2.31-.05,1.09-.05,2.18,0,3.27.02.39.04.79.09,1.18.12.98.3,1.94.55,2.89.57,2.21,1.45,4.29,2.65,6.22,1.19,1.91,2.64,3.6,4.33,5.09,2.24,1.97,4.77,3.44,7.6,4.4,1.28.43,2.59.74,3.93.94.85.12,1.71.21,2.57.23,1.15.04,2.3,0,3.44-.15.72-.09,1.43-.2,2.13-.36,1.36-.3,2.68-.72,3.95-1.27,1.77-.76,3.42-1.72,4.95-2.9.74-.57,1.41-1.21,2.07-1.87.85-.85,1.66-1.72,2.37-2.69,1.29-1.79,2.34-3.72,3.06-5.81.44-1.27.77-2.57.98-3.89.08-.45.15-.91.17-1.37.05-.73.05-1.46.07-2.2h-.03Zm-1.5,2.07c-.04.76-.17,1.51-.33,2.25-.22.96-.46,1.91-.79,2.83-.42,1.16-.96,2.27-1.57,3.33-.75,1.3-1.61,2.53-2.63,3.65-1.55,1.7-3.33,3.1-5.32,4.23-1.42.8-2.9,1.44-4.47,1.88-.79.23-1.59.42-2.4.55-.8.13-1.61.19-2.42.22-.91.03-1.82.04-2.73-.02-.74-.05-1.48-.15-2.21-.29-1.94-.37-3.79-1.01-5.55-1.9-1.46-.74-2.83-1.61-4.06-2.68-1.11-.97-2.17-1.99-3.06-3.17-1.49-1.96-2.66-4.1-3.43-6.44-.38-1.17-.64-2.36-.81-3.58-.19-1.36-.24-2.72-.17-4.09.15-2.77.83-5.41,2.03-7.91,1.41-2.93,3.4-5.4,5.94-7.42,2.28-1.8,4.82-3.07,7.62-3.82.93-.25,1.87-.42,2.83-.56.91-.13,1.83-.14,2.75-.11.66.02,1.31.05,1.96.08.64.04,1.28.14,1.91.27,1.74.35,3.42.9,5.03,1.67,2.22,1.07,4.2,2.47,5.93,4.23,2.35,2.4,4.04,5.21,5.07,8.41.32,1,.56,2.01.74,3.04.13.71.16,1.42.18,2.14.01.4,0,.79,0,1.19h.03c-.02.68-.04,1.36-.07,2.04Z"/>
      <path class="cls-1" d="m32.27,12.56c0,.11,0,.22,0,.33-.03.44-.04.88-.09,1.32-.08.82-.27,1.62-.68,2.34-.61,1.06-1.51,1.72-2.69,2.02-.65.16-1.31.18-1.98.11-1.03-.11-2-.43-2.95-.81-1.01-.41-1.99-.88-2.98-1.34-.72-.33-1.44-.66-2.16-.97-.64-.28-1.32-.39-2.02-.38-.21,0-.42.03-.61.08-.48.12-.82.43-1.08.84-.2.3-.32.65-.41,1-.1.4-.14.81-.18,1.22,0,.08-.02.16-.03.25h-2.39s-.02-.02-.02-.03c-.06-1.2.12-2.36.63-3.44.58-1.24,1.53-2.08,2.85-2.48.2-.06.41-.09.61-.11,1.19-.09,2.35.02,3.48.46,1.04.4,2.06.86,3.07,1.33.91.43,1.82.86,2.76,1.21.49.18.98.34,1.5.41.39.05.78.07,1.18,0,.57-.11.99-.43,1.27-.93.19-.35.3-.73.36-1.12.04-.32.07-.65.1-.98,0-.1.02-.21.03-.31h2.43Z"/>
      <path class="cls-1" d="m23.75,35.48v.2h-3c-.04-.24-.02-16.56.02-16.74.06.02.11.03.16.05.86.3,1.71.6,2.57.9.19.07.23.12.23.33,0,5.09,0,10.18,0,15.27Z"/>
    </g>
  </g>
</svg>