<?xml version="1.0" encoding="UTF-8"?>
<svg id="_Слой_2" data-name="Слой 2" xmlns="http://www.w3.org/2000/svg" viewBox="0 0 33.21 33.21">
  <defs>
    <style>
      .cls-1 {
        fill: #fff;
      }
    </style>
  </defs>
  <g id="_Слой_1-2" data-name="Слой 1">
    <path class="cls-1" d="m32.42,0H.79c-.44,0-.79.35-.79.79v31.63c0,.44.35.79.79.79h31.63c.44,0,.79-.35.79-.79V.79c0-.44-.35-.79-.79-.79Zm-12.65,17.75h-3.95v12.3h-3.16v-12.3h-3.95v-2.72h11.07v2.72Zm.89,11.6v-3.29s1.8,1.35,3.95,1.35,2.07-1.41,2.07-1.6c0-2.04-6.11-2.04-6.11-6.57,0-6.16,8.9-3.73,8.9-3.73l-.11,2.93s-1.49-.99-3.18-.99-2.29.8-2.29,1.66c0,2.21,6.16,1.99,6.16,6.44,0,6.85-9.39,3.81-9.39,3.81Z"/>
  </g>
</svg>