<?xml version="1.0" encoding="UTF-8"?>
<svg id="_Слой_2" data-name="Слой 2" xmlns="http://www.w3.org/2000/svg" viewBox="0 0 42.63 42.86">
  <defs>
    <style>
      .cls-1 {
        fill: #fff;
      }
    </style>
  </defs>
  <g id="_Слой_1-2" data-name="Слой 1">
    <path class="cls-1" d="m18.48,35.1c-1.76,0-3.23,0-4.69,0-.74,0-1.32-.37-1.84-.85-3.8-3.53-7.57-7.09-11.27-10.72-.86-.85-.92-1.38-.07-2.27,3.58-3.76,6.88-7.76,10.52-11.46.77-.79,1.56-1.23,2.68-1.16,1.13.06,2.27.01,3.66.01-3.15,4.1-6.41,7.81-9.66,11.53.42.34.75.23,1.06.23,4.82,0,9.64-.01,14.46.03.81,0,1.23-.22,1.58-.97,1.94-4.14,3.94-8.24,6.13-12.25.16-.29.53-.65.22-.99-.23-.25-.63-.04-.93.01-4.08.75-8.16,1.51-12.43,2.31.57-1.42,1.07-2.76,1.65-4.07.2-.46.72-.63,1.21-.75,4.95-1.21,9.9-2.41,14.85-3.64,1.03-.26,1.56.06,1.91,1.08,1.62,4.74,3.48,9.4,4.96,14.19.27.86.22,1.56-.24,2.32-.72,1.18-1.39,2.39-2.13,3.66-1.84-4.37-2.9-8.9-4.75-13.43-.92,1.83-1.72,3.4-2.5,4.98-1.4,2.85-2.77,5.72-4.2,8.56-.31.61-.37,1.1.02,1.7,2.51,3.9,5,7.82,7.69,12.04,1.26-4.59,2.43-8.87,3.71-13.51,1.23,2.22,3.17,3.62,2.39,6.44-1.2,4.36-2,8.82-2.98,13.24-.35,1.56-.46,1.65-2.06,1.37-5.3-.91-10.6-1.84-15.9-2.77-.33-.06-.67-.17-.84-.46-.74-1.23-1.25-2.57-1.67-3.92-.21-.67.47-.38.83-.33,4.11.63,8.22,1.26,12.33,1.9.2.03.4.08.64-.14-1.43-2.1-2.88-4.19-4.29-6.31-1.24-1.87-2.44-3.77-3.64-5.66-.28-.44-.55-.74-1.14-.73-5.11.03-10.21.02-15.32.03-.11,0-.21.06-.51.14,3.55,3.5,7.1,6.83,10.58,10.63Z"/>
  </g>
</svg>