<?xml version="1.0" encoding="UTF-8"?>
<svg id="_Слой_2" data-name="Слой 2" xmlns="http://www.w3.org/2000/svg" viewBox="0 0 45.1 45.06">
  <defs>
    <style>
      .cls-1 {
        fill: #fff;
      }
    </style>
  </defs>
  <g id="_Слой_1-2" data-name="Слой 1">
    <g>
      <path class="cls-1" d="m31.97,45.02c.22-.3.4-.58.62-.81.55-.59.78-1.28.82-2.08.08-1.66.1-3.33.11-4.99.01-2.71.07-5.41-.06-8.12-.18-3.7-.11-7.39-.09-11.08.01-2.08.17-4.16.15-6.24-.01-2.49.06-4.98-.06-7.47-.03-.63-.1-1.26-.19-1.89-.12-.83-.65-1.43-1.19-2.02-.05-.06-.17-.09-.14-.18.03-.1.15-.08.24-.1.48-.1.93.03,1.37.2,1.28.5,2.48,1.14,3.69,1.78,1.78.94,3.56,1.89,5.35,2.84.41.22.8.45,1.18.71.97.68,1.28,1.67,1.34,2.79,0,.16,0,.33,0,.49,0,9.11,0,18.22,0,27.33,0,.46-.05.92-.14,1.37-.2.96-.69,1.7-1.54,2.21-1.9,1.13-3.87,2.14-5.86,3.1-1.34.65-2.65,1.35-4.02,1.95-.48.21-.98.32-1.57.22Z"/>
      <path class="cls-1" d="m31.37,35.55c0,1.84,0,3.68,0,5.51,0,.44-.02.88-.18,1.29-.03.08-.07.17-.12.25-.28.48-.54.53-.99.22-.54-.38-.97-.87-1.41-1.35-1.33-1.47-2.81-2.79-4.09-4.31-1.43-1.69-2.87-3.38-4.43-4.95-2.04-2.05-4-4.17-5.95-6.3-1.54-1.68-3-3.42-4.53-5.11-1-1.1-2.07-2.14-3.1-3.22-1.46-1.54-2.87-3.13-4.27-4.72-.38-.43-.78-.83-1.28-1.13-.11-.06-.2-.15-.25-.26-.07-.16-.06-.31.14-.37,1.27-.37,2.35-1.12,3.53-1.67.24-.11.48-.21.73-.32.73-.33,1.39-.18,2.01.28,1.2.87,2.35,1.8,3.49,2.74,1.57,1.31,3.19,2.58,4.77,3.89,3.12,2.58,6.25,5.16,9.34,7.78,1.81,1.53,3.67,3,5.5,4.5,1.12.93,1.11.94,1.11,2.39,0,1.62,0,3.25,0,4.87Z"/>
      <path class="cls-1" d="m31.37,9.5c0,1.92,0,3.84,0,5.76,0,.58-.18,1.04-.62,1.43-1.35,1.21-2.75,2.34-4.14,3.49-.41.34-.81.68-1.21,1.04-.14.13-.23.13-.38.02-.76-.58-1.53-1.16-2.25-1.79-1.29-1.13-2.59-2.25-3.92-3.33-.19-.15-.39-.3-.59-.43-.2-.12-.21-.24-.06-.42.42-.5.9-.94,1.32-1.45,1.53-1.87,3.19-3.64,4.78-5.47,1.59-1.83,3.2-3.63,4.85-5.4.26-.28.53-.54.85-.75.46-.3.89-.19,1.14.31.19.38.25.79.25,1.22,0,1.92,0,3.84,0,5.76Z"/>
      <path class="cls-1" d="m5.88,37.09c-.18-.02-.36-.06-.55-.14-1.49-.61-2.88-1.44-4.35-2.09-.1-.04-.18-.13-.26-.21-.09-.08-.12-.14.03-.21.56-.27,1.01-.68,1.43-1.13,1.72-1.9,3.44-3.8,5.15-5.7.67-.74,1.33-1.49,2-2.24.14-.15.27-.31.38-.48.27-.39.3-.4.68-.12.24.18.43.41.63.63,1.01,1.1,2.04,2.17,3.01,3.3.23.26.48.5.73.74.28.27.29.55,0,.8-.54.46-1.08.9-1.64,1.34-1.49,1.18-2.94,2.41-4.34,3.68-.63.57-1.31,1.07-2.03,1.53-.26.16-.54.28-.87.31Z"/>
      <path class="cls-1" d="m.02,32.25c-.06-.69.04-1.32.06-1.95.14-4.07.1-8.15.07-12.22-.01-1.25-.05-2.49-.07-3.74,0-.06,0-.12,0-.18,0-.09-.01-.21.08-.25.09-.04.16.06.23.11.34.25.61.57.9.88,1.44,1.49,2.87,2.99,4.3,4.49.2.2.29.42.29.71,0,1.55,0,3.1,0,4.66,0,.74-.2,1.42-.72,1.96-1.51,1.6-2.92,3.31-4.42,4.92-.21.22-.42.44-.73.61Z"/>
    </g>
  </g>
</svg>