<?xml version="1.0" encoding="UTF-8"?>
<svg id="_Слой_2" data-name="Слой 2" xmlns="http://www.w3.org/2000/svg" viewBox="0 0 36.37 36.37">
  <defs>
    <style>
      .cls-1 {
        fill: #fff;
      }
    </style>
  </defs>
  <g id="_Слой_1-2" data-name="Слой 1">
    <path class="cls-1" d="m18.19,0C8.16,0,0,8.16,0,18.19s8.16,18.19,18.19,18.19,18.19-8.16,18.19-18.19S28.22,0,18.19,0Zm0,3.95c3.37,0,6.46,1.17,8.89,3.13-.76.5-1.22,1.38-1.22,2.33,0,1.27.71,2.37,1.5,3.64.63,1.03,1.27,2.37,1.27,4.27,0,1.34-.4,3-1.19,5.06l-1.58,5.22-5.61-16.76c.95-.08,1.82-.16,1.82-.16.79-.08.71-1.27-.08-1.27h-.08s-2.53.24-4.19.24c-1.5,0-4.11-.24-4.11-.24h-.08c-.79,0-.87,1.27-.08,1.27,0,0,.79.08,1.66.16l2.45,6.64-3.4,10.2-5.69-16.92c.95-.08,1.82-.16,1.82-.16.79-.08.71-1.27-.08-1.27h-.08s-1.7.16-3.23.22c2.6-3.4,6.68-5.59,11.3-5.59ZM3.95,18.19c0-1.42.21-2.8.6-4.09l5.87,16.02c-3.89-2.54-6.47-6.93-6.47-11.93Zm10.02,13.6l4.21-12.34,4.5,12.23c-1.41.47-2.92.73-4.5.73-1.47,0-2.88-.22-4.21-.63Zm12.36-1.94h0l4.19-12.14c.62-1.58.96-2.96,1.1-4.19.51,1.46.8,3.03.8,4.67,0,4.83-2.41,9.09-6.09,11.66Z"/>
  </g>
</svg>